<svg width="155" height="165" viewBox="0 0 155 165" fill="none" xmlns="http://www.w3.org/2000/svg">
<g clip-path="url(#clip0_1194_1681)">
<path d="M129.166 27.5H25.8327C22.407 27.5 19.1216 28.9487 16.6992 31.5273C14.2769 34.1059 12.916 37.6033 12.916 41.25V123.75C12.916 127.397 14.2769 130.894 16.6992 133.473C19.1216 136.051 22.407 137.5 25.8327 137.5H129.166C132.592 137.5 135.877 136.051 138.299 133.473C140.722 130.894 142.083 127.397 142.083 123.75V41.25C142.083 37.6033 140.722 34.1059 138.299 31.5273C135.877 28.9487 132.592 27.5 129.166 27.5ZM64.5827 123.75C56.9187 123.75 49.4267 121.331 43.0543 116.798C36.6819 112.266 31.7152 105.823 28.7823 98.2857C25.8495 90.7482 25.0821 82.4542 26.5773 74.4525C28.0724 66.4508 31.763 59.1008 37.1823 53.3318C42.6016 47.5629 49.5062 43.6342 57.0229 42.0426C64.5397 40.451 72.331 41.2679 79.4117 44.39C86.4923 47.5121 92.5442 52.7992 96.8021 59.5827C101.06 66.3663 103.333 74.3415 103.333 82.5C103.333 93.4402 99.2501 103.932 91.9831 111.668C84.716 119.404 74.8598 123.75 64.5827 123.75ZM122.708 55C121.43 55 120.182 54.5968 119.12 53.8414C118.058 53.0859 117.23 52.0122 116.741 50.7559C116.252 49.4997 116.124 48.1174 116.373 46.7838C116.623 45.4501 117.238 44.2251 118.141 43.2636C119.044 42.3022 120.195 41.6474 121.448 41.3821C122.701 41.1168 123.999 41.253 125.179 41.7733C126.359 42.2937 127.368 43.1749 128.078 44.3055C128.787 45.436 129.166 46.7653 129.166 48.125C129.166 49.9484 128.486 51.697 127.274 52.9864C126.063 54.2757 124.421 55 122.708 55ZM96.8743 84.2188C96.8743 99.6875 85.3139 100.031 81.5035 91.85C80.6558 90.3406 79.4824 89.068 78.0806 88.1375C76.7027 87.1719 75.133 86.56 73.4952 86.35C72.7948 87.9559 71.7822 89.3853 70.5243 90.5438C76.9827 103.263 74.3993 116.875 62.8389 116.875C48.4368 116.875 48.1139 104.569 55.7348 100.512C57.1354 99.6157 58.3276 98.3936 59.2223 96.9375C60.1217 95.4854 60.7164 93.8439 60.966 92.125C59.3867 91.4418 57.9895 90.3558 56.8973 88.9625C45.2077 95.7687 32.291 93.0187 32.291 80.7812C32.291 65.3125 43.7223 64.9 47.5327 73.0813C48.3614 74.6061 49.5389 75.8832 50.9556 76.7938C52.3435 77.7508 53.9064 78.3835 55.541 78.65C56.1676 76.9791 57.1913 75.5103 58.5118 74.3875C52.0535 61.875 54.6368 48.125 66.1327 48.125C80.6639 48.125 80.9868 60.3625 73.3014 64.4875C71.8863 65.3641 70.6902 66.5903 69.8139 68.0625C68.9068 69.5293 68.332 71.2002 68.1348 72.9437C69.65 73.6462 70.9966 74.7038 72.0743 76.0375C83.9577 69.1625 96.8743 71.9125 96.8743 84.2188Z" fill="#182F59"/>
</g>
<defs>
<clipPath id="clip0_1194_1681">
<rect width="155" height="165" fill="white"/>
</clipPath>
</defs>
</svg>
