<svg width="26" height="27" viewBox="0 0 26 27" fill="none" xmlns="http://www.w3.org/2000/svg">
<path d="M8.9375 5.06248V2.52954C8.9375 2.30576 9.0231 2.09115 9.17548 1.93292C9.32785 1.77469 9.53451 1.68579 9.75 1.68579H16.25C16.4655 1.68579 16.6722 1.77469 16.8245 1.93292C16.9769 2.09115 17.0625 2.30576 17.0625 2.52954V5.06248H23.5625C23.778 5.06248 23.9847 5.15137 24.137 5.30961C24.2894 5.46784 24.375 5.68245 24.375 5.90623C24.375 6.13001 24.2894 6.34462 24.137 6.50285C23.9847 6.66108 23.778 6.74998 23.5625 6.74998H2.4375C2.22201 6.74998 2.01535 6.66108 1.86298 6.50285C1.7106 6.34462 1.625 6.13001 1.625 5.90623C1.625 5.68245 1.7106 5.46784 1.86298 5.30961C2.01535 5.15137 2.22201 5.06248 2.4375 5.06248H8.9375ZM10.5625 5.06248H15.4375V3.37498H10.5625V5.06248ZM4.875 25.3125C4.65951 25.3125 4.45285 25.2236 4.30048 25.0654C4.1481 24.9071 4.0625 24.6925 4.0625 24.4687V6.74998H21.9375V24.4687C21.9375 24.6925 21.8519 24.9071 21.6995 25.0654C21.5472 25.2236 21.3405 25.3125 21.125 25.3125H4.875ZM10.5625 20.25C10.778 20.25 10.9847 20.1611 11.137 20.0029C11.2894 19.8446 11.375 19.63 11.375 19.4062V10.9687C11.375 10.745 11.2894 10.5303 11.137 10.3721C10.9847 10.2139 10.778 10.125 10.5625 10.125C10.347 10.125 10.1403 10.2139 9.98798 10.3721C9.8356 10.5303 9.75 10.745 9.75 10.9687V19.4062C9.75 19.63 9.8356 19.8446 9.98798 20.0029C10.1403 20.1611 10.347 20.25 10.5625 20.25ZM15.4375 20.25C15.653 20.25 15.8597 20.1611 16.012 20.0029C16.1644 19.8446 16.25 19.63 16.25 19.4062V10.9687C16.25 10.745 16.1644 10.5303 16.012 10.3721C15.8597 10.2139 15.653 10.125 15.4375 10.125C15.222 10.125 15.0153 10.2139 14.863 10.3721C14.7106 10.5303 14.625 10.745 14.625 10.9687V19.4062C14.625 19.63 14.7106 19.8446 14.863 20.0029C15.0153 20.1611 15.222 20.25 15.4375 20.25Z" fill="#182F59"/>
</svg>
