<svg width="247" height="65" viewBox="0 0 247 65" fill="none" xmlns="http://www.w3.org/2000/svg">
<g clip-path="url(#clip0_1194_1601)">
<path d="M47.3288 65C64.8219 65.085 80.7887 50.5116 80.7887 32.7824C80.7887 13.3946 64.8219 -0.00644609 47.3288 2.32615e-06H32.2738C14.5711 -0.00644609 0 13.3986 0 32.7824C0 50.5155 14.5711 65.0851 32.2738 65H47.3288Z" fill="#0079BE"/>
<path d="M32.3449 2.6864C16.1686 2.69156 3.06045 16.0075 3.05664 32.4421C3.06045 48.8738 16.1685 62.1885 32.3449 62.1937C48.525 62.1885 61.6358 48.8738 61.6381 32.4421C61.6356 16.0075 48.525 2.69156 32.3449 2.6864ZM13.7799 32.4421C13.7951 24.4112 18.7338 17.563 25.6981 14.8417V50.0384C18.7338 47.3186 13.795 40.4741 13.7799 32.4421ZM38.9891 50.0461V14.8405C45.9559 17.5553 50.9023 24.4074 50.915 32.4421C50.9023 40.4793 45.9559 47.3262 38.9891 50.0461Z" fill="white"/>
<path d="M91.0476 13.9842C91.0476 10.9095 89.469 11.1119 87.9552 11.0785V10.1899C89.267 10.2557 90.6119 10.2557 91.9264 10.2557C93.3398 10.2557 95.2587 10.1899 97.7501 10.1899C106.464 10.1899 111.21 16.1018 111.21 22.1555C111.21 25.5409 109.26 34.0515 97.345 34.0515C95.6293 34.0515 94.0458 33.9843 92.4647 33.9843C90.951 33.9843 89.469 34.018 87.9551 34.0515V33.1642C89.9731 32.9577 90.951 32.8895 91.0475 30.5642L91.0476 13.9842ZM94.3469 30.0187C94.3469 32.6509 96.1997 32.9579 97.848 32.9579C105.12 32.9579 107.507 27.3851 107.507 22.2909C107.507 15.9005 103.467 11.286 96.9732 11.286C95.5915 11.286 94.9565 11.3866 94.347 11.4229L94.3469 30.0187Z" fill="white"/>
<path d="M112.391 33.1643H113.028C113.969 33.1643 114.644 33.1643 114.644 32.0331V22.7707C114.644 21.2684 114.139 21.0593 112.894 20.3797V19.8316C114.475 19.3492 116.362 18.7044 116.494 18.6012C116.731 18.4645 116.932 18.4284 117.101 18.4284C117.267 18.4284 117.337 18.6347 117.337 18.9094V32.0331C117.337 33.1643 118.077 33.1643 119.02 33.1643H119.591V34.0529C118.446 34.0529 117.267 33.9847 116.058 33.9847C114.847 33.9847 113.634 34.0182 112.391 34.0529V33.1643H112.391ZM115.991 13.1651C115.115 13.1651 114.343 12.345 114.343 11.4562C114.343 10.5999 115.15 9.81189 115.991 9.81189C116.863 9.81189 117.64 10.533 117.64 11.4562C117.64 12.3796 116.898 13.1651 115.991 13.1651Z" fill="white"/>
<path d="M122.789 22.9745C122.789 21.7106 122.417 21.3701 120.838 20.7201V20.0715C122.285 19.5931 123.663 19.1481 125.279 18.4285C125.379 18.4285 125.478 18.4981 125.478 18.7702V20.9935C127.4 19.5931 129.049 18.4283 131.307 18.4283C134.165 18.4283 135.174 20.5485 135.174 23.2142V32.0332C135.174 33.1643 135.914 33.1643 136.858 33.1643H137.464V34.0528C136.283 34.0528 135.106 33.9846 133.897 33.9846C132.684 33.9846 131.471 34.0182 130.261 34.0528V33.1643H130.865C131.81 33.1643 132.479 33.1643 132.479 32.0332V23.182C132.479 21.2307 131.307 20.275 129.386 20.275C128.31 20.275 126.593 21.1638 125.478 21.9168V32.0329C125.478 33.1641 126.222 33.1641 127.166 33.1641H127.771V34.0527C126.593 34.0527 125.413 33.9844 124.202 33.9844C122.992 33.9844 121.778 34.018 120.567 34.0527V33.1641H121.174C122.117 33.1641 122.788 33.1641 122.788 32.0329V22.9745H122.789Z" fill="white"/>
<path d="M140.023 24.6174C139.953 24.9258 139.953 25.4376 140.023 26.6009C140.221 29.8471 142.28 32.513 144.968 32.513C146.821 32.513 148.271 31.4877 149.514 30.2238L149.984 30.7035C148.435 32.7877 146.517 34.5647 143.759 34.5647C138.406 34.5647 137.329 29.299 137.329 27.1131C137.329 20.4118 141.771 18.4282 144.126 18.4282C146.854 18.4282 149.783 20.1707 149.815 23.7946C149.815 24.0022 149.815 24.2047 149.783 24.4123L149.479 24.6174H140.023ZM145.981 23.5226C146.821 23.5226 146.92 23.0777 146.92 22.6688C146.92 20.925 145.877 19.5232 143.991 19.5232C141.94 19.5232 140.527 21.0592 140.123 23.5226H145.981Z" fill="white"/>
<path d="M150.59 33.1643H151.499C152.439 33.1643 153.112 33.1643 153.112 32.0331V22.4288C153.112 21.37 151.869 21.1636 151.362 20.8902V20.3795C153.819 19.3181 155.167 18.4282 155.473 18.4282C155.672 18.4282 155.771 18.5314 155.771 18.8745V21.9503H155.842C156.682 20.6181 158.098 18.4282 160.149 18.4282C160.99 18.4282 162.066 19.0086 162.066 20.2402C162.066 21.1636 161.429 21.9865 160.486 21.9865C159.439 21.9865 159.439 21.1636 158.263 21.1636C157.69 21.1636 155.807 21.9503 155.807 24.0022V32.0331C155.807 33.1641 156.478 33.1641 157.422 33.1641H159.305V34.0529C157.454 34.0179 156.045 33.9845 154.595 33.9845C153.216 33.9845 151.801 34.018 150.59 34.0529L150.59 33.1643Z" fill="white"/>
<path d="M163.549 29.2989C163.987 31.5559 165.332 33.4712 167.79 33.4712C169.771 33.4712 170.513 32.2408 170.513 31.044C170.513 27.0099 163.178 28.3086 163.178 22.8055C163.178 20.8903 164.694 18.4283 168.394 18.4283C169.47 18.4283 170.916 18.7379 172.228 19.4227L172.467 22.9063H171.691C171.356 20.7549 170.179 19.5234 168.022 19.5234C166.676 19.5234 165.399 20.3102 165.399 21.7791C165.399 25.7822 173.206 24.548 173.206 29.9144C173.206 32.17 171.422 34.565 167.417 34.565C166.07 34.565 164.489 34.0865 163.312 33.4043L162.941 29.4722L163.549 29.2989Z" fill="white"/>
<path d="M203.597 16.3777H202.757C202.117 12.3796 199.324 10.7714 195.556 10.7714C191.682 10.7714 186.062 13.4022 186.062 21.606C186.062 28.5161 190.911 33.471 196.093 33.471C199.424 33.471 202.186 31.147 202.859 27.5566L203.631 27.7604L202.859 32.7513C201.445 33.6425 197.642 34.5648 195.418 34.5648C187.545 34.5648 182.565 29.4023 182.565 21.7105C182.565 14.7024 188.723 9.67517 195.319 9.67517C198.045 9.67517 200.67 10.5676 203.261 11.491L203.597 16.3777Z" fill="white"/>
<path d="M204.811 33.1643H205.448C206.392 33.1643 207.067 33.1643 207.067 32.0332V12.995C207.067 10.7716 206.562 10.7031 205.282 10.3278V9.78098C206.628 9.33745 208.041 8.72086 208.749 8.30958C209.116 8.10581 209.387 7.93286 209.487 7.93286C209.692 7.93286 209.76 8.13934 209.76 8.41391V32.0332C209.76 33.1643 210.499 33.1643 211.442 33.1643H212.01V34.0529C210.871 34.0529 209.692 33.9846 208.479 33.9846C207.269 33.9846 206.058 34.0182 204.811 34.0529V33.1643H204.811Z" fill="white"/>
<path d="M226.421 32.17C226.421 32.7878 226.789 32.8213 227.36 32.8213C227.765 32.8213 228.268 32.7878 228.708 32.7878V33.5074C227.259 33.6428 224.499 34.3612 223.859 34.5649L223.69 34.4616V31.6954C221.674 33.3693 220.123 34.5649 217.732 34.5649C215.915 34.5649 214.03 33.3693 214.03 30.4997V21.7454C214.03 20.8568 213.897 20.0016 212.015 19.8315V19.1815C213.228 19.1479 215.915 18.9428 216.354 18.9428C216.727 18.9428 216.727 19.1815 216.727 19.9334V28.7508C216.727 29.7788 216.727 32.7179 219.653 32.7179C220.797 32.7179 222.311 31.8293 223.723 30.6363V21.4357C223.723 20.7548 222.109 20.3795 220.9 20.0363V19.4211C223.925 19.2147 225.814 18.9426 226.148 18.9426C226.421 18.9426 226.421 19.1812 226.421 19.5591L226.421 32.17Z" fill="white"/>
<path d="M233.118 20.8904C234.463 19.7283 236.28 18.4284 238.132 18.4284C242.037 18.4284 244.391 21.8848 244.391 25.608C244.391 30.0859 241.161 34.5648 236.346 34.5648C233.856 34.5648 232.545 33.7433 231.668 33.3691L230.66 34.1533L229.956 33.7794C230.254 31.7623 230.425 29.7788 230.425 27.6947V12.9949C230.425 10.7716 229.917 10.7031 228.64 10.3278V9.78098C229.99 9.33745 231.399 8.72086 232.107 8.30945C232.477 8.10568 232.745 7.93286 232.85 7.93286C233.05 7.93286 233.117 8.13934 233.117 8.41391V20.8903H233.118V20.8904ZM233.118 30.1878C233.118 31.4878 234.328 33.6776 236.583 33.6776C240.185 33.6776 241.698 30.0859 241.698 27.0423C241.698 23.3513 238.942 20.2754 236.315 20.2754C235.067 20.2754 234.026 21.0969 233.118 21.8848L233.118 30.1878Z" fill="white"/>
<path d="M87.917 53.928H88.1748C88.8326 53.928 89.5285 53.8379 89.5285 52.8692V43.1244C89.5285 42.1544 88.8326 42.0629 88.1748 42.0629H87.917V41.5045C88.632 41.5045 89.7304 41.578 90.6308 41.578C91.5452 41.578 92.6424 41.5045 93.5034 41.5045V42.0629H93.2456C92.589 42.0629 91.892 42.1545 91.892 43.1244V52.8692C91.892 53.8379 92.589 53.928 93.2456 53.928H93.5034V54.4892C92.6246 54.4892 91.5236 54.4157 90.6105 54.4157C89.7128 54.4157 88.632 54.4892 87.917 54.4892V53.928Z" fill="white"/>
<path d="M93.5039 54.5679C92.6187 54.5679 91.5216 54.4931 90.6097 54.4931C89.7144 54.4931 88.6376 54.5679 87.9175 54.5679H87.8389V54.4879V53.9295V53.8482H87.9175H88.1741C88.8382 53.8327 89.4428 53.7786 89.4491 52.8694V43.1244C89.4428 42.2152 88.8383 42.1544 88.1741 42.1416H87.8389V42.0631V41.422H87.9175C88.6376 41.422 89.7349 41.4955 90.63 41.4955C91.5418 41.4955 92.6379 41.422 93.5039 41.422H93.5853V41.5071V42.1416H93.5039H93.2473C92.5832 42.1545 91.9748 42.2152 91.9711 43.1244V52.8694C91.9748 53.7786 92.583 53.8327 93.2473 53.8482H93.5851V53.9295V54.5679H93.5039ZM93.4251 54.4091V54.0119H93.2475C92.5935 54.0119 91.815 53.8971 91.8111 52.8694V43.1244C91.8149 42.0965 92.5933 41.9804 93.2475 41.9804H93.4251V41.5858C92.5794 41.5858 91.519 41.658 90.63 41.658C89.7601 41.658 88.7074 41.5909 87.9987 41.5858V41.9804H88.174C88.8267 41.9804 89.6077 42.0965 89.6077 43.1244V52.8694C89.6077 53.8972 88.8267 54.0119 88.174 54.0119H87.9987V54.4091C88.7074 54.4014 89.7422 54.3343 90.6097 54.3343C91.5012 54.3343 92.5616 54.4039 93.4251 54.4091Z" fill="white"/>
<path d="M106.085 50.8225L106.122 50.7864V43.8118C106.122 42.2848 105.077 42.063 104.528 42.063H104.124V41.5044C104.986 41.5044 105.828 41.5779 106.688 41.5779C107.438 41.5779 108.193 41.5044 108.942 41.5044V42.063H108.668C107.897 42.063 107.036 42.2111 107.036 44.4244V52.8898C107.036 53.54 107.055 54.1898 107.145 54.7665H106.448L97.0187 44.0892V51.7538C97.0187 53.3723 97.3273 53.9282 98.7395 53.9282H99.0492V54.4892C98.2633 54.4892 97.477 54.4157 96.6884 54.4157C95.8668 54.4157 95.0237 54.4892 94.1982 54.4892V53.9282H94.4548C95.7183 53.9282 96.102 53.0562 96.102 51.5693V43.7345C96.102 42.6937 95.2575 42.0631 94.4371 42.0631H94.1984V41.5047C94.8942 41.5047 95.608 41.578 96.3026 41.578C96.8524 41.578 97.3846 41.5047 97.9331 41.5047L106.085 50.8225Z" fill="white"/>
<path d="M107.145 54.8477L106.389 54.8192L97.0957 44.2994V51.7537C97.1173 53.371 97.3598 53.8303 98.739 53.8482H99.1314V53.9282V54.5678H99.0501C98.2577 54.5678 97.4691 54.493 96.6879 54.493C95.8676 54.493 95.0269 54.5678 94.1963 54.5678H94.1163V54.4879V53.8482H94.1963H94.4541C95.6644 53.8417 96.0098 53.0525 96.0238 51.5693V43.7358C96.0211 42.7453 95.2212 42.1443 94.4364 42.1417H94.1162V42.0592V41.4247H94.1962C94.8961 41.4247 95.6134 41.4956 96.3005 41.4956C96.8453 41.4956 97.3762 41.4247 97.9933 41.4518L106.042 50.6538V43.8133C106.032 42.3327 105.061 42.1548 104.527 42.1417H104.042V42.0592V41.4247H104.123C104.988 41.4247 105.831 41.4956 106.687 41.4956C107.433 41.4956 108.183 41.4247 108.94 41.4247H109.02V41.5046V42.1416H108.94H108.667C107.911 42.1637 107.135 42.2306 107.114 44.4244V52.8885C107.114 53.5385 107.133 54.1885 107.222 54.7521L107.24 54.8476H107.145V54.8477ZM106.449 54.6838H107.055C106.972 54.1253 106.958 53.5063 106.958 52.8885V44.4244C106.958 42.1919 107.879 41.9805 108.667 41.9805H108.86V41.5858C108.139 41.5909 107.415 41.658 106.688 41.658C105.85 41.658 105.034 41.5909 104.205 41.5858L104.204 41.9805H104.528C105.09 41.9805 106.201 42.2358 106.201 43.8132L106.176 50.8418L106.139 50.8806L106.077 50.9387L97.9328 41.5858C97.3894 41.5858 96.8585 41.658 96.301 41.658C95.6292 41.658 94.9422 41.5909 94.278 41.5858L94.2742 41.9804H94.4367C95.2965 41.9804 96.1791 42.6472 96.1791 43.7357V51.5692C96.1791 53.0561 95.7714 54.0079 94.4545 54.013L94.278 54.0079V54.4089C95.0717 54.4012 95.887 54.3341 96.6882 54.3341C97.4528 54.3341 98.2135 54.4013 98.9702 54.4089V54.013H98.7392C97.2977 54.0079 96.9398 53.3709 96.9384 51.7535V43.88L106.449 54.6838ZM106.042 50.7852V50.7787L106.027 50.7657L106.042 50.7852Z" fill="white"/>
<path d="M111.683 42.4331C110.308 42.4331 110.256 42.7685 109.982 44.1252H109.432C109.504 43.6054 109.595 43.0857 109.651 42.544C109.725 42.023 109.76 41.5044 109.76 40.9654H110.201C110.348 41.5239 110.806 41.5045 111.302 41.5045H120.749C121.244 41.5045 121.702 41.4865 121.74 40.9269L122.176 41.0017C122.105 41.5045 122.032 42.0063 121.976 42.5092C121.943 43.011 121.943 43.5139 121.943 44.0143L121.392 44.2219C121.354 43.5345 121.262 42.4331 120.037 42.4331H117.033V52.3301C117.033 53.7643 117.675 53.9282 118.551 53.9282H118.9V54.4892C118.186 54.4892 116.903 54.4157 115.916 54.4157C114.817 54.4157 113.533 54.4892 112.818 54.4892V53.9282H113.168C114.177 53.9282 114.688 53.8365 114.688 52.3688V42.4331H111.683Z" fill="white"/>
<path d="M118.903 54.5679C118.182 54.5679 116.901 54.4931 115.916 54.4931C114.819 54.4931 113.538 54.5679 112.819 54.5679H112.743V54.4892V53.8483H112.819H113.168C114.178 53.8237 114.584 53.8109 114.607 52.3689V42.5145H111.684V42.4331V42.3506H114.766V52.3689C114.766 53.861 114.174 54.0119 113.168 54.0132H112.899V54.4053C113.622 54.4015 114.854 54.3343 115.917 54.3343C116.872 54.3343 118.096 54.4015 118.82 54.4053V54.0132H118.552C117.667 54.0119 116.954 53.7914 116.954 52.3302V42.3506H120.038C121.267 42.3558 121.427 43.4172 121.467 44.1072L121.862 43.9588C121.862 43.4739 121.865 42.9877 121.898 42.4976C121.951 42.0192 122.019 41.5446 122.087 41.07L121.808 41.0222C121.723 41.5639 121.208 41.591 120.747 41.5858H111.303H111.208C110.777 41.5858 110.306 41.5652 110.142 41.0456H109.84C109.837 41.5602 109.802 42.0593 109.732 42.5544C109.678 43.0652 109.595 43.5566 109.526 44.048H109.919C110.16 42.7517 110.317 42.3313 111.684 42.3507V42.4333V42.5145C110.33 42.539 110.358 42.7712 110.059 44.146L110.046 44.2092H109.982H109.341L109.351 44.1124C109.425 43.5914 109.517 43.0728 109.572 42.5312C109.648 42.0153 109.684 41.4994 109.684 40.9655V40.8842H109.761H110.264L110.277 40.9423C110.402 41.4117 110.742 41.4143 111.208 41.422H111.303H120.747C121.258 41.4143 121.629 41.4066 121.66 40.9202L121.668 40.8325L121.751 40.8506L122.267 40.9332L122.256 41.0145C122.182 41.5123 122.11 42.0153 122.057 42.5144C122.02 43.0096 122.02 43.5126 122.02 44.0143V44.0723L121.969 44.093L121.32 44.3327L121.315 44.2244C121.267 43.5254 121.194 42.5143 120.037 42.5143H117.114V52.33C117.131 53.7332 117.679 53.8299 118.551 53.848H118.981V53.928V54.5676L118.903 54.5679Z" fill="white"/>
<path d="M122.763 53.928H123.02C123.678 53.928 124.375 53.8379 124.375 52.8692V43.1244C124.375 42.1544 123.678 42.0629 123.02 42.0629H122.763V41.5045C123.878 41.5045 125.785 41.578 127.32 41.578C128.862 41.578 130.763 41.5045 132.008 41.5045C131.977 42.3028 131.994 43.5332 132.048 44.3497L131.496 44.4992C131.408 43.2909 131.189 42.3249 129.265 42.3249H126.721V47.196H128.898C129.996 47.196 130.236 46.5654 130.344 45.5582H130.893C130.857 46.2868 130.838 47.0117 130.838 47.7365C130.838 48.4446 130.857 49.15 130.893 49.8568L130.344 49.9675C130.236 48.8521 130.18 48.1272 128.915 48.1272H126.721V52.4592C126.721 53.6702 127.779 53.6702 128.952 53.6702C131.151 53.6702 132.119 53.5193 132.669 51.4017L133.183 51.5293C132.943 52.5172 132.724 53.5013 132.562 54.4892C131.388 54.4892 129.281 54.4157 127.635 54.4157C125.984 54.4157 123.807 54.4892 122.763 54.4892V53.928Z" fill="white"/>
<path d="M132.559 54.5678C131.383 54.5678 129.278 54.4916 127.633 54.4916C125.984 54.4916 123.807 54.5678 122.762 54.5678H122.685V54.4892V53.9282V53.8482H122.762H123.019C123.683 53.8379 124.285 53.7786 124.294 52.8693V43.1244C124.285 42.2164 123.683 42.1558 123.019 42.1416H122.685V42.0631V41.4247H122.762C123.879 41.4247 125.784 41.4956 127.32 41.4956C128.86 41.4956 130.76 41.4247 132.007 41.4247H132.089L132.086 41.5072C132.073 41.7871 132.068 42.1171 132.068 42.468C132.068 43.1115 132.086 43.8143 132.123 44.3445L132.125 44.4116L132.064 44.4298L131.42 44.6L131.417 44.5046C131.309 43.2974 131.15 42.4217 129.264 42.4037H126.797L126.794 47.1123H128.897C129.951 47.102 130.14 46.5539 130.265 45.5518L130.271 45.4783H130.342H130.974L130.972 45.562C130.937 46.2868 130.914 47.0116 130.914 47.7364C130.914 48.4406 130.937 49.146 130.972 49.8541L130.974 49.92L130.908 49.9353L130.271 50.0643L130.265 49.9766C130.139 48.8416 130.13 48.22 128.914 48.206L126.797 48.2045V52.4592C126.798 53.589 127.758 53.5825 128.952 53.589C131.156 53.5761 132.04 53.4679 132.593 51.3785L132.611 51.3037L132.688 51.3178L133.275 51.4712L133.257 51.5487C133.021 52.534 132.801 53.5167 132.637 54.5019L132.622 54.5678H132.559ZM132.492 54.4053C132.651 53.4676 132.86 52.5263 133.085 51.5898L132.723 51.497C132.175 53.5787 131.113 53.7642 128.952 53.7502C127.798 53.7502 126.643 53.7502 126.638 52.4591V48.0458H128.914C130.192 48.0316 130.323 48.8157 130.413 49.8746L130.81 49.7909C130.774 49.1059 130.757 48.4185 130.757 47.7363C130.757 47.036 130.774 46.3397 130.81 45.6392H130.413C130.312 46.6078 130.013 47.2887 128.897 47.2758H126.638V42.2409H129.264C131.169 42.2279 131.485 43.2262 131.566 44.396L131.961 44.2876C131.93 43.7627 131.908 43.0895 131.908 42.4679C131.908 42.1494 131.916 41.8489 131.926 41.5858C130.681 41.5909 128.827 41.658 127.32 41.658C125.815 41.658 123.962 41.5909 122.841 41.5858V41.9804H123.018C123.671 41.9804 124.451 42.0965 124.453 43.1244V52.8693C124.451 53.8946 123.671 54.0081 123.018 54.0133H122.841V54.4053C123.909 54.4039 126.025 54.3344 127.633 54.3344C129.249 54.3344 131.311 54.4039 132.492 54.4053Z" fill="white"/>
<path d="M135.653 43.4752C135.653 42.1185 134.922 42.063 134.351 42.063H134.022V41.5033C134.609 41.5033 135.743 41.5781 136.861 41.5781C137.959 41.5781 138.839 41.5033 139.808 41.5033C142.114 41.5033 144.168 42.1365 144.168 44.7804C144.168 46.4505 143.07 47.4745 141.623 48.0536L144.753 52.8125C145.266 53.5992 145.631 53.8198 146.53 53.928V54.4891C145.925 54.4891 145.339 54.4156 144.735 54.4156C144.168 54.4156 143.58 54.4891 143.015 54.4891C141.605 52.61 140.394 50.6007 139.203 48.4598H137.999V52.4424C137.999 53.8765 138.655 53.9281 139.497 53.9281H139.827V54.4892C138.781 54.4892 137.723 54.4157 136.678 54.4157C135.798 54.4157 134.937 54.4892 134.022 54.4892V53.9281H134.351C135.032 53.9281 135.653 53.616 135.653 52.926V43.4752ZM137.998 47.7905H138.892C140.725 47.7905 141.712 47.0839 141.712 44.8887C141.712 43.2353 140.669 42.1739 139.037 42.1739C138.487 42.1739 138.254 42.232 137.998 42.2487V47.7905H137.998Z" fill="white"/>
<path d="M146.53 54.5678C145.917 54.5678 145.334 54.493 144.732 54.493C144.173 54.493 143.589 54.5678 142.95 54.5369C141.546 52.6656 140.342 50.6678 139.158 48.5424H138.076V52.44C138.095 53.8393 138.649 53.8277 139.496 53.8483H139.906V53.9283V54.568H139.825C138.778 54.568 137.716 54.4932 136.676 54.4932C135.8 54.4932 134.942 54.568 134.023 54.568H133.942V54.488V53.8483H134.023H134.351C135.012 53.8445 135.568 53.553 135.571 52.9262V43.4755C135.557 42.1549 134.92 42.1625 134.351 42.1433H133.942V42.0633V41.4224H134.023C134.616 41.4224 135.746 41.4957 136.861 41.4957C137.954 41.4957 138.834 41.4224 139.81 41.4224C142.117 41.4275 144.243 42.0749 144.249 44.7755C144.249 46.456 143.156 47.5044 141.742 48.09L144.819 52.7689C145.331 53.5401 145.65 53.7324 146.542 53.8483L146.609 53.8586V53.9283V54.568H146.53V54.5678ZM137.996 48.3798H139.248L139.27 48.4211C140.464 50.5581 141.666 52.5648 143.015 54.4091C143.574 54.4091 144.162 54.333 144.732 54.333C145.317 54.333 145.881 54.3975 146.451 54.4065V53.999C145.592 53.8906 145.189 53.6301 144.689 52.8576L141.502 48.0147L141.593 47.9773C143.025 47.4048 144.086 46.4105 144.087 44.775C144.086 42.1944 142.112 41.5961 139.81 41.5858C138.843 41.5858 137.964 41.6593 136.861 41.6593C135.785 41.6593 134.699 41.5909 134.1 41.5858V41.9804H134.351C134.92 41.9818 135.73 42.0771 135.73 43.4753V52.9259C135.73 53.6727 135.041 54.0131 134.351 54.0144H134.1V54.4064C134.981 54.4038 135.816 54.333 136.676 54.333C137.7 54.333 138.733 54.4039 139.746 54.4064V54.0144H139.496C138.66 54.013 137.916 53.9074 137.916 52.4397V48.3798H137.996H137.996ZM137.996 47.8691H137.916V42.1739L137.986 42.1674C138.236 42.1482 138.484 42.0952 139.038 42.0952C140.706 42.0952 141.791 43.1966 141.793 44.8924C141.788 47.1132 140.739 47.8677 138.893 47.869H137.996V47.8691ZM138.893 47.7093C140.706 47.6937 141.618 47.0541 141.637 44.8925C141.627 43.2675 140.633 42.259 139.037 42.2525C138.542 42.2525 138.31 42.299 138.076 42.3197V47.7093H138.893Z" fill="white"/>
<path d="M158.964 50.8225L158.997 50.7864V43.8118C158.997 42.2848 157.955 42.063 157.406 42.063H157.005V41.5044C157.865 41.5044 158.705 41.5779 159.568 41.5779C160.319 41.5779 161.067 41.5044 161.823 41.5044V42.063H161.547C160.778 42.063 159.917 42.2111 159.917 44.4244V52.8898C159.917 53.54 159.935 54.1898 160.025 54.7665H159.33L149.9 44.0892V51.7538C149.9 53.3723 150.211 53.9282 151.62 53.9282H151.932V54.4892C151.145 54.4892 150.357 54.4157 149.571 54.4157C148.744 54.4157 147.902 54.4892 147.079 54.4892V53.9282H147.333C148.598 53.9282 148.983 53.0562 148.983 51.5693V43.7345C148.983 42.6937 148.141 42.0631 147.318 42.0631H147.079V41.5047C147.773 41.5047 148.49 41.578 149.185 41.578C149.731 41.578 150.264 41.5047 150.814 41.5047L158.964 50.8225Z" fill="white"/>
<path d="M160.025 54.8463L159.271 54.8205L149.977 44.2994V51.7525C149.998 53.371 150.24 53.83 151.621 53.8482H152.009V53.9282V54.5679H151.928C151.136 54.5679 150.351 54.4916 149.566 54.4916C148.749 54.4916 147.903 54.5679 147.079 54.5679H146.996V54.4892V53.8482H147.079H147.333C148.542 53.8431 148.888 53.0525 148.9 51.5642V43.7345C148.898 42.7439 148.1 42.1431 147.318 42.1416H146.996V42.0631V41.4221H147.079C147.777 41.4221 148.493 41.4955 149.184 41.4955C149.723 41.4955 150.253 41.4221 150.868 41.4478L158.918 50.6537V43.8105C158.913 42.3325 157.938 42.1494 157.406 42.1418H156.922V42.0631V41.4221H157.002C157.868 41.4221 158.711 41.4955 159.567 41.4955C160.314 41.4955 161.064 41.4221 161.819 41.4221H161.899V41.5059V42.1418H161.819H161.547C160.791 42.1624 160.013 42.2306 159.994 44.4245V52.8886C159.994 53.5386 160.01 54.1834 160.103 54.756L160.113 54.8463H160.025ZM159.33 54.6838H159.932C159.851 54.1254 159.834 53.5063 159.834 52.8886V44.4244C159.835 42.1918 160.762 41.9856 161.547 41.9791H161.738V41.5858C161.02 41.5909 160.295 41.658 159.567 41.658C158.726 41.658 157.91 41.5909 157.08 41.5858V41.9791H157.406C157.969 41.9856 159.079 42.2358 159.079 43.8105L159.054 50.8418L159.018 50.8805L158.963 50.9398L150.812 41.5859C150.269 41.5859 149.738 41.6581 149.184 41.6581C148.506 41.6581 147.822 41.5911 147.155 41.5859V41.9793H147.317C148.177 41.9857 149.06 42.6447 149.06 43.7345V51.5641C149.06 53.0575 148.646 54.008 147.333 54.0132L147.155 54.0119V54.4052C147.946 54.4014 148.763 54.3343 149.567 54.3343C150.335 54.3343 151.096 54.4014 151.852 54.4052V54.0132H151.621C150.179 54.0119 149.818 53.371 149.816 51.7523V43.8827L159.33 54.6838ZM158.918 50.7864V50.7798L158.904 50.7657L158.918 50.7864Z" fill="white"/>
<path d="M164.768 51.8285C164.582 52.4591 164.361 52.9466 164.361 53.2781C164.361 53.8378 165.132 53.9281 165.734 53.9281H165.939V54.4891C165.205 54.449 164.457 54.4156 163.719 54.4156C163.06 54.4156 162.404 54.4493 161.744 54.4891V53.9281H161.854C162.568 53.9281 163.174 53.5011 163.444 52.7184L166.378 44.1831C166.614 43.4944 166.947 42.5646 167.058 41.8747C167.641 41.6722 168.374 41.3008 168.721 41.0764C168.778 41.0572 168.81 41.0377 168.867 41.0377C168.922 41.0377 168.957 41.0377 168.998 41.0958C169.051 41.2428 169.105 41.4117 169.163 41.56L172.532 51.2894C172.752 51.9394 172.969 52.6268 173.207 53.1865C173.428 53.7076 173.813 53.9281 174.419 53.9281H174.527V54.4891C173.703 54.4491 172.878 54.4157 172.001 54.4157C171.104 54.4157 170.185 54.4493 169.252 54.4891V53.9281H169.455C169.874 53.9281 170.591 53.8559 170.591 53.3903C170.591 53.1491 170.425 52.6474 170.221 52.0503L169.509 49.8927H165.352L164.768 51.8285ZM167.44 43.5874H167.403L165.7 48.8519H169.122L167.44 43.5874Z" fill="white"/>
<path d="M174.522 54.5679C173.698 54.5305 172.874 54.4917 172.001 54.4917C171.103 54.4917 170.191 54.5305 169.254 54.5679L169.172 54.5731V54.4893V53.8457H169.252H169.454C169.878 53.8457 170.508 53.7477 170.508 53.3906C170.513 53.1789 170.348 52.6682 170.146 52.0764L169.448 49.9729H165.409L164.84 51.8519C164.654 52.4864 164.435 52.9778 164.436 53.2808C164.442 53.7349 165.127 53.8457 165.734 53.8457H166.016V53.9295V54.5731L165.933 54.5679C165.201 54.5305 164.453 54.4917 163.722 54.4917C163.066 54.4917 162.406 54.5305 161.749 54.5679L161.664 54.5731V54.4893V53.8457H161.744H161.853C162.535 53.8431 163.104 53.4499 163.368 52.6929L166.301 44.1565C166.541 43.4665 166.871 42.5392 167.029 41.7976C167.603 41.6003 168.339 41.2263 168.692 40.9993C168.743 40.9825 168.794 40.9568 168.868 40.9568C168.913 40.9555 169.012 40.9671 169.07 41.0652C169.122 41.2186 169.179 41.3838 169.235 41.5347L172.608 51.2629C172.824 51.9154 173.043 52.6028 173.282 53.1521C173.494 53.6488 173.83 53.8434 174.419 53.846H174.606V53.9298V54.5734L174.522 54.5679ZM169.332 54.4016C170.238 54.3693 171.126 54.3332 172.001 54.3332C172.852 54.3332 173.648 54.3693 174.444 54.4016V54.0132H174.419C173.792 54.0171 173.359 53.767 173.134 53.2189C172.895 52.654 172.672 51.9641 172.457 51.3128L169.085 41.586C169.03 41.4377 168.976 41.2687 168.928 41.1372C168.913 41.1191 168.916 41.1191 168.901 41.1191H168.868C168.83 41.1191 168.808 41.1307 168.761 41.1436C168.408 41.3771 167.673 41.742 167.131 41.8878C167.018 42.5919 166.689 43.5205 166.45 44.2092L163.519 52.7469C163.24 53.5542 162.598 54.0147 161.853 54.0132H161.824V54.4016C162.451 54.3693 163.086 54.3332 163.722 54.3332C164.43 54.3332 165.154 54.3693 165.852 54.4016V54.0132H165.734C165.138 54.0055 164.305 53.9372 164.282 53.2807C164.284 52.9093 164.509 52.4335 164.687 51.8054L164.768 51.8298L164.687 51.8027L165.291 49.814H169.56L170.295 52.0247C170.501 52.6218 170.667 53.117 170.667 53.3905C170.642 53.9618 169.869 54.0018 169.454 54.0134H169.331L169.332 54.4016ZM165.588 48.9319L167.342 43.5062H167.403H167.441H167.495L169.234 48.9319H165.588ZM165.808 48.7707H169.013L167.419 43.7861L165.808 48.7707Z" fill="white"/>
<path d="M175.332 42.4331C173.958 42.4331 173.904 42.7685 173.628 44.1252H173.078C173.151 43.6054 173.243 43.0857 173.301 42.544C173.374 42.023 173.407 41.5044 173.407 40.9654H173.849C173.995 41.5239 174.455 41.5045 174.946 41.5045H184.398C184.89 41.5045 185.347 41.4865 185.385 40.9269L185.823 41.0017C185.753 41.5045 185.681 42.0063 185.625 42.5092C185.586 43.011 185.586 43.5139 185.586 44.0143L185.037 44.2219C185.003 43.5345 184.912 42.4331 183.684 42.4331H180.68V52.3301C180.68 53.7643 181.323 53.9282 182.199 53.9282H182.547V54.4892C181.833 54.4892 180.553 54.4157 179.562 54.4157C178.465 54.4157 177.181 54.4892 176.468 54.4892V53.9282H176.814C177.824 53.9282 178.337 53.8365 178.337 52.3688V42.4331H175.332Z" fill="white"/>
<path d="M182.547 54.5679C181.828 54.5679 180.546 54.4931 179.563 54.4931C178.468 54.4931 177.185 54.5679 176.468 54.5679H176.387V54.4892V53.8482H176.468H176.814C177.824 53.8237 178.229 53.8108 178.255 52.3689L178.252 42.5145H175.332V42.4331V42.3506H178.413V52.3689C178.413 53.861 177.82 54.008 176.814 54.0119H176.545V54.4091C177.27 54.4013 178.5 54.3343 179.563 54.3343C180.519 54.3343 181.743 54.4015 182.467 54.4091V54.0119H182.196C181.316 54.008 180.603 53.7927 180.6 52.3302V42.3506H183.683C184.913 42.3558 185.074 43.4172 185.108 44.1071L185.508 43.9588C185.508 43.4739 185.51 42.9877 185.545 42.5002C185.596 42.0217 185.664 41.5445 185.732 41.0698L185.455 41.0221C185.371 41.5638 184.854 41.5936 184.399 41.5857H174.946H174.854C174.422 41.5908 173.955 41.5651 173.788 41.0427H173.488C173.483 41.5586 173.449 42.0591 173.377 42.5544C173.328 43.0664 173.238 43.559 173.17 44.0478H173.562C173.805 42.7516 173.964 42.3311 175.332 42.3506V42.4331L175.332 42.5144C173.975 42.5377 174.005 42.771 173.705 44.1458L173.692 44.209H173.628H172.985L172.997 44.116C173.073 43.5913 173.164 43.0727 173.218 42.5349C173.293 42.0152 173.328 41.4993 173.328 40.9654V40.8841H173.407H173.907L173.923 40.9421C174.051 41.4116 174.385 41.4142 174.853 41.4219L174.946 41.4245H184.398C184.904 41.4143 185.273 41.4064 185.305 40.9216L185.31 40.8326L185.396 40.8508L185.916 40.9334L185.902 41.0146C185.827 41.5124 185.757 42.0154 185.701 42.5145C185.664 43.0098 185.664 43.514 185.664 44.0144V44.0725L185.613 44.0931L184.964 44.333L184.96 44.2245C184.913 43.5256 184.84 42.5144 183.683 42.5144H180.759V52.3302C180.778 53.7333 181.325 53.8301 182.196 53.8481H182.626V53.9281V54.5678L182.547 54.5679Z" fill="white"/>
<path d="M186.499 53.928H186.756C187.417 53.928 188.109 53.8379 188.109 52.8692V43.1244C188.109 42.1544 187.417 42.0629 186.756 42.0629H186.499V41.5045C187.214 41.5045 188.311 41.578 189.206 41.578C190.126 41.578 191.225 41.5045 192.085 41.5045V42.0629H191.829C191.17 42.0629 190.471 42.1545 190.471 43.1244V52.8692C190.471 53.8379 191.17 53.928 191.829 53.928H192.085V54.4892C191.205 54.4892 190.106 54.4157 189.193 54.4157C188.294 54.4157 187.214 54.4892 186.499 54.4892V53.928Z" fill="white"/>
<path d="M192.086 54.5678C191.201 54.5678 190.105 54.4916 189.192 54.4916C188.297 54.4916 187.215 54.5678 186.5 54.5678H186.42V54.4892V53.9282V53.8482H186.5H186.756C187.418 53.8379 188.025 53.7798 188.028 52.8693V43.1244C188.025 42.2164 187.418 42.1544 186.756 42.1416H186.42V42.0631V41.4247H186.5C187.215 41.4247 188.315 41.4956 189.207 41.4956C190.12 41.4956 191.219 41.4247 192.086 41.4247H192.164V41.5045V42.1416H192.086H191.83C191.16 42.1545 190.56 42.2164 190.551 43.1244V52.8693C190.56 53.7798 191.161 53.8379 191.83 53.8482H192.164V53.9282V54.5678H192.086ZM192.004 54.4053V54.0119H191.83C191.173 54.0119 190.396 53.8946 190.396 52.8693V43.1244C190.396 42.0965 191.173 41.9804 191.83 41.9804H192.004V41.5858C191.158 41.5909 190.1 41.658 189.207 41.658C188.34 41.658 187.29 41.5909 186.58 41.5858V41.9804H186.757C187.408 41.9804 188.188 42.0965 188.19 43.1244V52.8693C188.188 53.8945 187.408 54.0119 186.757 54.0119H186.58V54.4053C187.286 54.3975 188.322 54.3343 189.192 54.3343C190.08 54.3343 191.14 54.4015 192.004 54.4053Z" fill="white"/>
<path d="M199.389 41.226C203.293 41.226 206.404 43.6841 206.404 47.6447C206.404 51.924 203.383 54.7676 199.485 54.7676C195.599 54.7676 192.635 52.0888 192.635 48.0896C192.635 44.2219 195.581 41.226 199.389 41.226ZM199.666 53.9487C203.219 53.9487 203.838 50.7657 203.838 48.0535C203.838 45.3349 202.395 42.0436 199.354 42.0436C196.149 42.0436 195.197 44.9454 195.197 47.4358C195.197 50.7657 196.699 53.9487 199.666 53.9487Z" fill="white"/>
<path d="M192.553 48.0897C192.56 44.1768 195.542 41.1499 199.389 41.1448V41.226V41.3046C195.625 41.3046 192.711 44.2619 192.708 48.0896C192.717 52.0438 195.639 54.6824 199.484 54.6837C203.345 54.6824 206.323 51.8787 206.329 47.6409C206.325 43.7306 203.261 41.3097 199.389 41.3046V41.226V41.1448C203.323 41.1474 206.476 43.63 206.484 47.6409C206.48 51.9651 203.419 54.8386 199.484 54.8462C195.568 54.8385 192.56 52.1327 192.553 48.0896H192.553V48.0897ZM195.118 47.4358C195.123 44.934 196.086 41.9599 199.355 41.9599C202.463 41.9677 203.915 45.3209 203.92 48.0536C203.915 50.7658 203.286 54.0263 199.667 54.0263V53.9489V53.8688C203.149 53.8638 203.752 50.7658 203.761 48.0536C203.761 45.357 202.331 42.1289 199.355 42.1249C196.213 42.1288 195.283 44.9584 195.277 47.4358C195.28 50.749 196.767 53.861 199.667 53.8688V53.9489V54.0263C196.627 54.0223 195.123 50.7853 195.118 47.4358Z" fill="white"/>
<path d="M218.745 50.8225L218.782 50.7864V43.8118C218.782 42.2848 217.735 42.063 217.186 42.063H216.789V41.5044C217.648 41.5044 218.49 41.5779 219.348 41.5779C220.101 41.5779 220.852 41.5044 221.603 41.5044V42.063H221.327C220.559 42.063 219.697 42.2111 219.697 44.4244V52.8898C219.697 53.54 219.715 54.1898 219.808 54.7665H219.113L209.68 44.0892V51.7538C209.68 53.3723 209.99 53.9282 211.4 53.9282H211.713V54.4892C210.925 54.4892 210.139 54.4157 209.351 54.4157C208.527 54.4157 207.683 54.4892 206.858 54.4892V53.9282H207.116C208.382 53.9282 208.762 53.0562 208.762 51.5693V43.7345C208.762 42.6937 207.924 42.0631 207.097 42.0631H206.858V41.5047C207.554 41.5047 208.269 41.578 208.964 41.578C209.514 41.578 210.043 41.5047 210.595 41.5047L218.745 50.8225Z" fill="white"/>
<path d="M219.81 54.8463L219.052 54.8192L209.76 44.2993V51.7537C209.78 53.371 210.022 53.8288 211.398 53.8456H211.794V53.9294V54.5678H211.714C210.92 54.5678 210.134 54.493 209.352 54.493C208.53 54.493 207.689 54.5678 206.857 54.5678H206.781V54.4879V53.8456H206.857H207.117C208.324 53.8419 208.671 53.0526 208.686 51.5693V43.7345C208.684 42.744 207.885 42.143 207.097 42.1417H206.781V42.0631V41.4247H206.857C207.56 41.4247 208.273 41.4957 208.964 41.4957C209.508 41.4957 210.036 41.4247 210.656 41.4519L218.702 50.6538V43.8133C218.697 42.3329 217.722 42.1548 217.186 42.1419H216.705V42.0633V41.4249H216.787C217.649 41.4249 218.494 41.4959 219.346 41.4959C220.098 41.4959 220.844 41.4249 221.604 41.4249H221.682V41.5048V42.1419H221.604H221.327C220.574 42.1638 219.794 42.2334 219.779 44.4246V52.8888C219.779 53.5388 219.793 54.1874 219.882 54.7561L219.897 54.8464H219.81V54.8463ZM219.114 54.6838H219.713C219.633 54.1253 219.619 53.5063 219.619 52.8885V44.4244C219.619 42.188 220.543 41.9856 221.327 41.9791H221.525V41.5858C220.803 41.5909 220.079 41.658 219.346 41.658C218.513 41.658 217.694 41.5909 216.865 41.5858V41.9791H217.186C217.754 41.9856 218.859 42.2398 218.859 43.813L218.839 50.8418L218.804 50.8806L218.746 50.9398L210.595 41.5859C210.056 41.5859 209.521 41.6581 208.965 41.6581C208.29 41.6581 207.603 41.5911 206.937 41.5859V41.9792H207.098C207.958 41.9857 208.843 42.6447 208.843 43.7345V51.5693C208.843 53.0563 208.434 54.0081 207.117 54.0133L206.937 54.0119V54.4053C207.732 54.4015 208.547 54.3344 209.352 54.3344C210.115 54.3344 210.873 54.4015 211.634 54.4053V54.0133H211.398C209.961 54.0119 209.601 53.371 209.601 51.7536V43.8801L219.114 54.6838ZM218.702 50.7864V50.7798L218.687 50.7657L218.702 50.7864Z" fill="white"/>
<path d="M224.547 51.8285C224.368 52.4591 224.145 52.9466 224.145 53.2781C224.145 53.8378 224.916 53.9281 225.517 53.9281H225.721V54.4891C224.989 54.449 224.237 54.4156 223.504 54.4156C222.842 54.4156 222.186 54.4493 221.529 54.4891V53.9281H221.633C222.351 53.9281 222.958 53.5011 223.229 52.7184L226.162 44.1831C226.398 43.4944 226.73 42.5646 226.837 41.8747C227.423 41.6722 228.155 41.3008 228.506 41.0764C228.558 41.0572 228.595 41.0377 228.651 41.0377C228.706 41.0377 228.74 41.0377 228.777 41.0958C228.833 41.2428 228.89 41.4117 228.945 41.56L232.312 51.2894C232.532 51.9394 232.751 52.6268 232.992 53.1865C233.211 53.7076 233.598 53.9281 234.199 53.9281H234.311V54.4891C233.486 54.4491 232.662 54.4157 231.782 54.4157C230.886 54.4157 229.969 54.4493 229.035 54.4891V53.9281H229.238C229.656 53.9281 230.375 53.8559 230.375 53.3903C230.375 53.1491 230.208 52.6474 230.004 52.0503L229.293 49.8927H225.135L224.547 51.8285ZM227.224 43.5874H227.187L225.481 48.8519H228.909L227.224 43.5874Z" fill="white"/>
<path d="M234.303 54.5679C233.479 54.5344 232.657 54.4931 231.782 54.4931C230.889 54.4931 229.972 54.5344 229.037 54.5679L228.956 54.5731V54.488V53.8483H229.035H229.234C229.661 53.8483 230.292 53.7477 230.293 53.3904C230.297 53.1788 230.132 52.6721 229.927 52.0763L229.232 49.9728H225.189L224.623 51.8517C224.44 52.4888 224.222 52.9776 224.226 53.2782C224.226 53.7348 224.911 53.8483 225.517 53.8483H225.796V53.9282V54.5731L225.715 54.5679C224.982 54.5344 224.233 54.4931 223.504 54.4931C222.848 54.4931 222.19 54.5344 221.529 54.5679L221.449 54.5731V54.488V53.8483H221.529H221.633C222.317 53.8456 222.888 53.4472 223.155 52.6927L226.086 44.1563C226.319 43.4663 226.65 42.5391 226.812 41.8001C227.388 41.5976 228.123 41.2262 228.478 40.999C228.526 40.9823 228.576 40.9604 228.651 40.9604C228.699 40.9552 228.793 40.9668 228.852 41.0687C228.906 41.2146 228.96 41.3834 229.02 41.5343L232.388 51.2625C232.607 51.915 232.827 52.6025 233.064 53.1557C233.278 53.6484 233.613 53.8431 234.197 53.8483H234.387V53.9282V54.5731L234.303 54.5679ZM229.113 54.404C230.019 54.3692 230.91 54.3331 231.782 54.3331C232.634 54.3331 233.432 54.3692 234.23 54.4014L234.227 54.0131H234.197C233.577 54.0145 233.144 53.7669 232.917 53.2188C232.675 52.6539 232.457 51.9639 232.239 51.3151L228.868 41.5859C228.813 41.4375 228.758 41.2686 228.713 41.1422C228.698 41.119 228.699 41.119 228.685 41.119H228.651C228.613 41.119 228.592 41.1319 228.548 41.1448C228.191 41.3731 227.457 41.7444 226.915 41.8876C226.802 42.5918 226.469 43.5191 226.233 44.2091L223.301 52.7468C223.023 53.5541 222.383 54.0145 221.633 54.0131H221.607V54.4014C222.237 54.3692 222.866 54.3331 223.504 54.3331C224.214 54.3331 224.936 54.3692 225.641 54.4014V54.0131H225.517C224.921 54.0054 224.086 53.9397 224.064 53.2781C224.068 52.9093 224.295 52.436 224.472 51.8053L224.547 51.8297L224.472 51.8026L225.075 49.8139H229.346L230.08 52.0244C230.282 52.623 230.448 53.1169 230.448 53.3903C230.421 53.9616 229.653 54.0015 229.234 54.0131H229.113V54.404H229.113ZM225.372 48.9307L227.128 43.5062H227.184H227.224H227.281L229.012 48.9307H225.372ZM225.592 48.7707H228.795L227.202 43.7886L225.592 48.7707Z" fill="white"/>
<path d="M238.926 52.6654C238.926 53.4097 239.434 53.6314 240.021 53.7075C240.771 53.7642 241.596 53.7642 242.441 53.6701C243.208 53.5761 243.869 53.1298 244.196 52.6654C244.488 52.2553 244.654 51.7343 244.764 51.3254H245.295C245.094 52.3856 244.838 53.4302 244.617 54.489C243.009 54.489 241.394 54.4155 239.785 54.4155C238.171 54.4155 236.562 54.489 234.95 54.489V53.9279H235.201C235.865 53.9279 236.581 53.8378 236.581 52.6835V43.1244C236.581 42.1544 235.864 42.0629 235.201 42.0629H234.95V41.5045C235.918 41.5045 236.871 41.578 237.841 41.578C238.778 41.578 239.692 41.5045 240.627 41.5045V42.0629H240.166C239.472 42.0629 238.926 42.0836 238.926 43.0663V52.6654Z" fill="white"/>
<path d="M244.616 54.5678C243.002 54.5678 241.391 54.493 239.784 54.493C238.171 54.493 236.56 54.5678 234.946 54.5678H234.868V54.4879V53.8482H234.946H235.201C235.865 53.8327 236.493 53.7863 236.5 52.6836V43.1207C236.492 42.2167 235.869 42.1548 235.201 42.1417H234.868V42.0632V41.4248H234.946C235.92 41.4248 236.874 41.4957 237.841 41.4957C238.771 41.4957 239.685 41.4248 240.626 41.4248H240.701V41.5048V42.1417H240.626H240.166C239.457 42.1624 239.015 42.1288 239.001 43.0666V52.6657C239.006 53.3582 239.453 53.5452 240.024 53.6265C240.348 53.6497 240.687 53.6639 241.04 53.6639C241.488 53.6639 241.954 53.642 242.427 53.5904C243.174 53.5015 243.816 53.0642 244.131 52.6205C244.413 52.2233 244.576 51.7126 244.685 51.3064L244.701 51.2446H244.762H245.391L245.374 51.3426C245.168 52.4066 244.916 53.4461 244.694 54.5049L244.679 54.5681H244.616H244.616V54.5678ZM244.55 54.4053C244.762 53.3968 245.002 52.4101 245.199 51.4041H244.823C244.709 51.8091 244.546 52.3082 244.258 52.7144C243.916 53.1968 243.238 53.6507 242.445 53.75C241.965 53.8003 241.49 53.8261 241.04 53.8261C240.686 53.8261 240.342 53.8094 240.01 53.786C239.415 53.719 238.837 53.461 238.839 52.6654V43.0663C238.839 42.0333 239.483 41.9804 240.166 41.9804H240.545V41.5858C239.642 41.5909 238.753 41.6591 237.841 41.6591C236.892 41.6591 235.965 41.5909 235.026 41.5858V41.9804H235.201C235.855 41.9804 236.655 42.0965 236.655 43.1205V52.6835C236.655 53.8867 235.859 54.0118 235.201 54.0118H235.026V54.4052C236.609 54.4039 238.193 54.3343 239.784 54.3343C241.375 54.3343 242.965 54.4039 244.55 54.4053Z" fill="white"/>
<path d="M245.073 40.9758C246.176 40.9758 247 41.8373 247 42.9413C247 44.0401 246.176 44.8939 245.073 44.8939C243.969 44.8939 243.144 44.0401 243.144 42.9413C243.143 41.8375 243.969 40.9758 245.073 40.9758ZM245.073 44.5289C245.935 44.5289 246.598 43.7809 246.598 42.9413C246.598 42.0966 245.945 41.3421 245.073 41.3421C244.205 41.3421 243.542 42.0967 243.542 42.9413C243.542 43.7809 244.205 44.5289 245.073 44.5289ZM244.113 43.9731V43.8763C244.35 43.8428 244.393 43.8505 244.393 43.7009V42.2513C244.393 42.0477 244.371 41.978 244.121 41.9882V41.8889H245.108C245.448 41.8889 245.759 42.0527 245.759 42.4087C245.759 42.7001 245.569 42.9155 245.304 42.9993L245.62 43.448C245.768 43.6518 245.935 43.8428 246.045 43.9097V43.9729H245.669C245.489 43.9729 245.332 43.5873 244.976 43.0701H244.763V43.7214C244.763 43.8504 244.807 43.8427 245.045 43.8762V43.9729L244.113 43.9731ZM244.763 42.9413H244.99C245.239 42.9413 245.356 42.7491 245.356 42.4409C245.356 42.1288 245.175 42.0191 244.977 42.0191H244.763V42.9413Z" fill="white"/>
<path d="M47.3288 65C64.8219 65.085 80.7887 50.5116 80.7887 32.7824C80.7887 13.3946 64.8219 -0.00644609 47.3288 2.32615e-06H32.2738C14.5711 -0.00644609 0 13.3986 0 32.7824C0 50.5155 14.5711 65.0851 32.2738 65H47.3288Z" fill="#0079BE"/>
<path d="M32.3449 2.6864C16.1686 2.69156 3.06045 16.0075 3.05664 32.4421C3.06045 48.8738 16.1685 62.1885 32.3449 62.1937C48.525 62.1885 61.6358 48.8738 61.6381 32.4421C61.6356 16.0075 48.525 2.69156 32.3449 2.6864ZM13.7799 32.4421C13.7951 24.4112 18.7338 17.563 25.6981 14.8417V50.0384C18.7338 47.3186 13.795 40.4741 13.7799 32.4421ZM38.9891 50.0461V14.8405C45.9559 17.5553 50.9023 24.4074 50.915 32.4421C50.9023 40.4793 45.9559 47.3262 38.9891 50.0461Z" fill="white"/>
<path d="M91.0476 13.9842C91.0476 10.9095 89.469 11.1119 87.9552 11.0785V10.1899C89.267 10.2557 90.6119 10.2557 91.9264 10.2557C93.3398 10.2557 95.2587 10.1899 97.7501 10.1899C106.464 10.1899 111.21 16.1018 111.21 22.1555C111.21 25.5409 109.26 34.0515 97.345 34.0515C95.6293 34.0515 94.0458 33.9843 92.4647 33.9843C90.951 33.9843 89.469 34.018 87.9551 34.0515V33.1642C89.9731 32.9577 90.951 32.8895 91.0475 30.5642L91.0476 13.9842ZM94.3469 30.0187C94.3469 32.6509 96.1997 32.9579 97.848 32.9579C105.12 32.9579 107.507 27.3851 107.507 22.2909C107.507 15.9005 103.467 11.286 96.9732 11.286C95.5915 11.286 94.9565 11.3866 94.347 11.4229L94.3469 30.0187Z" fill="white"/>
<path d="M112.391 33.1643H113.028C113.969 33.1643 114.644 33.1643 114.644 32.0331V22.7707C114.644 21.2684 114.139 21.0593 112.894 20.3797V19.8316C114.475 19.3492 116.362 18.7044 116.494 18.6012C116.731 18.4645 116.932 18.4284 117.101 18.4284C117.267 18.4284 117.337 18.6347 117.337 18.9094V32.0331C117.337 33.1643 118.077 33.1643 119.02 33.1643H119.591V34.0529C118.446 34.0529 117.267 33.9847 116.058 33.9847C114.847 33.9847 113.634 34.0182 112.391 34.0529V33.1643H112.391ZM115.991 13.1651C115.115 13.1651 114.343 12.345 114.343 11.4562C114.343 10.5999 115.15 9.81189 115.991 9.81189C116.863 9.81189 117.64 10.533 117.64 11.4562C117.64 12.3796 116.898 13.1651 115.991 13.1651Z" fill="white"/>
<path d="M122.789 22.9745C122.789 21.7106 122.417 21.3701 120.838 20.7201V20.0715C122.285 19.5931 123.663 19.1481 125.279 18.4285C125.379 18.4285 125.478 18.4981 125.478 18.7702V20.9935C127.4 19.5931 129.049 18.4283 131.307 18.4283C134.165 18.4283 135.174 20.5485 135.174 23.2142V32.0332C135.174 33.1643 135.914 33.1643 136.858 33.1643H137.464V34.0528C136.283 34.0528 135.106 33.9846 133.897 33.9846C132.684 33.9846 131.471 34.0182 130.261 34.0528V33.1643H130.865C131.81 33.1643 132.479 33.1643 132.479 32.0332V23.182C132.479 21.2307 131.307 20.275 129.386 20.275C128.31 20.275 126.593 21.1638 125.478 21.9168V32.0329C125.478 33.1641 126.222 33.1641 127.166 33.1641H127.771V34.0527C126.593 34.0527 125.413 33.9844 124.202 33.9844C122.992 33.9844 121.778 34.018 120.567 34.0527V33.1641H121.174C122.117 33.1641 122.788 33.1641 122.788 32.0329V22.9745H122.789Z" fill="white"/>
<path d="M140.023 24.6174C139.953 24.9258 139.953 25.4376 140.023 26.6009C140.221 29.8471 142.28 32.513 144.968 32.513C146.821 32.513 148.271 31.4877 149.514 30.2238L149.984 30.7035C148.435 32.7877 146.517 34.5647 143.759 34.5647C138.406 34.5647 137.329 29.299 137.329 27.1131C137.329 20.4118 141.771 18.4282 144.126 18.4282C146.854 18.4282 149.783 20.1707 149.815 23.7946C149.815 24.0022 149.815 24.2047 149.783 24.4123L149.479 24.6174H140.023ZM145.981 23.5226C146.821 23.5226 146.92 23.0777 146.92 22.6688C146.92 20.925 145.877 19.5232 143.991 19.5232C141.94 19.5232 140.527 21.0592 140.123 23.5226H145.981Z" fill="white"/>
<path d="M150.59 33.1643H151.499C152.439 33.1643 153.112 33.1643 153.112 32.0331V22.4288C153.112 21.37 151.869 21.1636 151.362 20.8902V20.3795C153.819 19.3181 155.167 18.4282 155.473 18.4282C155.672 18.4282 155.771 18.5314 155.771 18.8745V21.9503H155.842C156.682 20.6181 158.098 18.4282 160.149 18.4282C160.99 18.4282 162.066 19.0086 162.066 20.2402C162.066 21.1636 161.429 21.9865 160.486 21.9865C159.439 21.9865 159.439 21.1636 158.263 21.1636C157.69 21.1636 155.807 21.9503 155.807 24.0022V32.0331C155.807 33.1641 156.478 33.1641 157.422 33.1641H159.305V34.0529C157.454 34.0179 156.045 33.9845 154.595 33.9845C153.216 33.9845 151.801 34.018 150.59 34.0529L150.59 33.1643Z" fill="white"/>
<path d="M163.549 29.2989C163.987 31.5559 165.332 33.4712 167.79 33.4712C169.771 33.4712 170.513 32.2408 170.513 31.044C170.513 27.0099 163.178 28.3086 163.178 22.8055C163.178 20.8903 164.694 18.4283 168.394 18.4283C169.47 18.4283 170.916 18.7379 172.228 19.4227L172.467 22.9063H171.691C171.356 20.7549 170.179 19.5234 168.022 19.5234C166.676 19.5234 165.399 20.3102 165.399 21.7791C165.399 25.7822 173.206 24.548 173.206 29.9144C173.206 32.17 171.422 34.565 167.417 34.565C166.07 34.565 164.489 34.0865 163.312 33.4043L162.941 29.4722L163.549 29.2989Z" fill="white"/>
<path d="M203.597 16.3777H202.757C202.117 12.3796 199.324 10.7714 195.556 10.7714C191.682 10.7714 186.062 13.4022 186.062 21.606C186.062 28.5161 190.911 33.471 196.093 33.471C199.424 33.471 202.186 31.147 202.859 27.5566L203.631 27.7604L202.859 32.7513C201.445 33.6425 197.642 34.5648 195.418 34.5648C187.545 34.5648 182.565 29.4023 182.565 21.7105C182.565 14.7024 188.723 9.67517 195.319 9.67517C198.045 9.67517 200.67 10.5676 203.261 11.491L203.597 16.3777Z" fill="white"/>
<path d="M204.811 33.1643H205.448C206.392 33.1643 207.067 33.1643 207.067 32.0332V12.995C207.067 10.7716 206.562 10.7031 205.282 10.3278V9.78098C206.628 9.33745 208.041 8.72086 208.749 8.30958C209.116 8.10581 209.387 7.93286 209.487 7.93286C209.692 7.93286 209.76 8.13934 209.76 8.41391V32.0332C209.76 33.1643 210.499 33.1643 211.442 33.1643H212.01V34.0529C210.871 34.0529 209.692 33.9846 208.479 33.9846C207.269 33.9846 206.058 34.0182 204.811 34.0529V33.1643H204.811Z" fill="white"/>
<path d="M226.421 32.17C226.421 32.7878 226.789 32.8213 227.36 32.8213C227.765 32.8213 228.268 32.7878 228.708 32.7878V33.5074C227.259 33.6428 224.499 34.3612 223.859 34.5649L223.69 34.4616V31.6954C221.674 33.3693 220.123 34.5649 217.732 34.5649C215.915 34.5649 214.03 33.3693 214.03 30.4997V21.7454C214.03 20.8568 213.897 20.0016 212.015 19.8315V19.1815C213.228 19.1479 215.915 18.9428 216.354 18.9428C216.727 18.9428 216.727 19.1815 216.727 19.9334V28.7508C216.727 29.7788 216.727 32.7179 219.653 32.7179C220.797 32.7179 222.311 31.8293 223.723 30.6363V21.4357C223.723 20.7548 222.109 20.3795 220.9 20.0363V19.4211C223.925 19.2147 225.814 18.9426 226.148 18.9426C226.421 18.9426 226.421 19.1812 226.421 19.5591L226.421 32.17Z" fill="white"/>
<path d="M233.118 20.8904C234.463 19.7283 236.28 18.4284 238.132 18.4284C242.037 18.4284 244.391 21.8848 244.391 25.608C244.391 30.0859 241.161 34.5648 236.346 34.5648C233.856 34.5648 232.545 33.7433 231.668 33.3691L230.66 34.1533L229.956 33.7794C230.254 31.7623 230.425 29.7788 230.425 27.6947V12.9949C230.425 10.7716 229.917 10.7031 228.64 10.3278V9.78098C229.99 9.33745 231.399 8.72086 232.107 8.30945C232.477 8.10568 232.745 7.93286 232.85 7.93286C233.05 7.93286 233.117 8.13934 233.117 8.41391V20.8903H233.118V20.8904ZM233.118 30.1878C233.118 31.4878 234.328 33.6776 236.583 33.6776C240.185 33.6776 241.698 30.0859 241.698 27.0423C241.698 23.3513 238.942 20.2754 236.315 20.2754C235.067 20.2754 234.026 21.0969 233.118 21.8848L233.118 30.1878Z" fill="white"/>
<path d="M87.917 53.928H88.1748C88.8326 53.928 89.5285 53.8379 89.5285 52.8692V43.1244C89.5285 42.1544 88.8326 42.0629 88.1748 42.0629H87.917V41.5045C88.632 41.5045 89.7304 41.578 90.6308 41.578C91.5452 41.578 92.6424 41.5045 93.5034 41.5045V42.0629H93.2456C92.589 42.0629 91.892 42.1545 91.892 43.1244V52.8692C91.892 53.8379 92.589 53.928 93.2456 53.928H93.5034V54.4892C92.6246 54.4892 91.5236 54.4157 90.6105 54.4157C89.7128 54.4157 88.632 54.4892 87.917 54.4892V53.928Z" fill="white"/>
<path d="M93.5039 54.5679C92.6187 54.5679 91.5216 54.4931 90.6097 54.4931C89.7144 54.4931 88.6376 54.5679 87.9175 54.5679H87.8389V54.4879V53.9295V53.8482H87.9175H88.1741C88.8382 53.8327 89.4428 53.7786 89.4491 52.8694V43.1244C89.4428 42.2152 88.8383 42.1544 88.1741 42.1416H87.8389V42.0631V41.422H87.9175C88.6376 41.422 89.7349 41.4955 90.63 41.4955C91.5418 41.4955 92.6379 41.422 93.5039 41.422H93.5853V41.5071V42.1416H93.5039H93.2473C92.5832 42.1545 91.9748 42.2152 91.9711 43.1244V52.8694C91.9748 53.7786 92.583 53.8327 93.2473 53.8482H93.5851V53.9295V54.5679H93.5039ZM93.4251 54.4091V54.0119H93.2475C92.5935 54.0119 91.815 53.8971 91.8111 52.8694V43.1244C91.8149 42.0965 92.5933 41.9804 93.2475 41.9804H93.4251V41.5858C92.5794 41.5858 91.519 41.658 90.63 41.658C89.7601 41.658 88.7074 41.5909 87.9987 41.5858V41.9804H88.174C88.8267 41.9804 89.6077 42.0965 89.6077 43.1244V52.8694C89.6077 53.8972 88.8267 54.0119 88.174 54.0119H87.9987V54.4091C88.7074 54.4014 89.7422 54.3343 90.6097 54.3343C91.5012 54.3343 92.5616 54.4039 93.4251 54.4091Z" fill="white"/>
<path d="M106.085 50.8225L106.122 50.7864V43.8118C106.122 42.2848 105.077 42.063 104.528 42.063H104.124V41.5044C104.986 41.5044 105.828 41.5779 106.688 41.5779C107.438 41.5779 108.193 41.5044 108.942 41.5044V42.063H108.668C107.897 42.063 107.036 42.2111 107.036 44.4244V52.8898C107.036 53.54 107.055 54.1898 107.145 54.7665H106.448L97.0187 44.0892V51.7538C97.0187 53.3723 97.3273 53.9282 98.7395 53.9282H99.0492V54.4892C98.2633 54.4892 97.477 54.4157 96.6884 54.4157C95.8668 54.4157 95.0237 54.4892 94.1982 54.4892V53.9282H94.4548C95.7183 53.9282 96.102 53.0562 96.102 51.5693V43.7345C96.102 42.6937 95.2575 42.0631 94.4371 42.0631H94.1984V41.5047C94.8942 41.5047 95.608 41.578 96.3026 41.578C96.8524 41.578 97.3846 41.5047 97.9331 41.5047L106.085 50.8225Z" fill="white"/>
<path d="M107.145 54.8477L106.389 54.8192L97.0957 44.2994V51.7537C97.1173 53.371 97.3598 53.8303 98.739 53.8482H99.1314V53.9282V54.5678H99.0501C98.2577 54.5678 97.4691 54.493 96.6879 54.493C95.8676 54.493 95.0269 54.5678 94.1963 54.5678H94.1163V54.4879V53.8482H94.1963H94.4541C95.6644 53.8417 96.0098 53.0525 96.0238 51.5693V43.7358C96.0211 42.7453 95.2212 42.1443 94.4364 42.1417H94.1162V42.0592V41.4247H94.1962C94.8961 41.4247 95.6134 41.4956 96.3005 41.4956C96.8453 41.4956 97.3762 41.4247 97.9933 41.4518L106.042 50.6538V43.8133C106.032 42.3327 105.061 42.1548 104.527 42.1417H104.042V42.0592V41.4247H104.123C104.988 41.4247 105.831 41.4956 106.687 41.4956C107.433 41.4956 108.183 41.4247 108.94 41.4247H109.02V41.5046V42.1416H108.94H108.667C107.911 42.1637 107.135 42.2306 107.114 44.4244V52.8885C107.114 53.5385 107.133 54.1885 107.222 54.7521L107.24 54.8476H107.145V54.8477ZM106.449 54.6838H107.055C106.972 54.1253 106.958 53.5063 106.958 52.8885V44.4244C106.958 42.1919 107.879 41.9805 108.667 41.9805H108.86V41.5858C108.139 41.5909 107.415 41.658 106.688 41.658C105.85 41.658 105.034 41.5909 104.205 41.5858L104.204 41.9805H104.528C105.09 41.9805 106.201 42.2358 106.201 43.8132L106.176 50.8418L106.139 50.8806L106.077 50.9387L97.9328 41.5858C97.3894 41.5858 96.8585 41.658 96.301 41.658C95.6292 41.658 94.9422 41.5909 94.278 41.5858L94.2742 41.9804H94.4367C95.2965 41.9804 96.1791 42.6472 96.1791 43.7357V51.5692C96.1791 53.0561 95.7714 54.0079 94.4545 54.013L94.278 54.0079V54.4089C95.0717 54.4012 95.887 54.3341 96.6882 54.3341C97.4528 54.3341 98.2135 54.4013 98.9702 54.4089V54.013H98.7392C97.2977 54.0079 96.9398 53.3709 96.9384 51.7535V43.88L106.449 54.6838ZM106.042 50.7852V50.7787L106.027 50.7657L106.042 50.7852Z" fill="white"/>
<path d="M111.683 42.4331C110.308 42.4331 110.256 42.7685 109.982 44.1252H109.432C109.504 43.6054 109.595 43.0857 109.651 42.544C109.725 42.023 109.76 41.5044 109.76 40.9654H110.201C110.348 41.5239 110.806 41.5045 111.302 41.5045H120.749C121.244 41.5045 121.702 41.4865 121.74 40.9269L122.176 41.0017C122.105 41.5045 122.032 42.0063 121.976 42.5092C121.943 43.011 121.943 43.5139 121.943 44.0143L121.392 44.2219C121.354 43.5345 121.262 42.4331 120.037 42.4331H117.033V52.3301C117.033 53.7643 117.675 53.9282 118.551 53.9282H118.9V54.4892C118.186 54.4892 116.903 54.4157 115.916 54.4157C114.817 54.4157 113.533 54.4892 112.818 54.4892V53.9282H113.168C114.177 53.9282 114.688 53.8365 114.688 52.3688V42.4331H111.683Z" fill="white"/>
<path d="M118.903 54.5679C118.182 54.5679 116.901 54.4931 115.916 54.4931C114.819 54.4931 113.538 54.5679 112.819 54.5679H112.743V54.4892V53.8483H112.819H113.168C114.178 53.8237 114.584 53.8109 114.607 52.3689V42.5145H111.684V42.4331V42.3506H114.766V52.3689C114.766 53.861 114.174 54.0119 113.168 54.0132H112.899V54.4053C113.622 54.4015 114.854 54.3343 115.917 54.3343C116.872 54.3343 118.096 54.4015 118.82 54.4053V54.0132H118.552C117.667 54.0119 116.954 53.7914 116.954 52.3302V42.3506H120.038C121.267 42.3558 121.427 43.4172 121.467 44.1072L121.862 43.9588C121.862 43.4739 121.865 42.9877 121.898 42.4976C121.951 42.0192 122.019 41.5446 122.087 41.07L121.808 41.0222C121.723 41.5639 121.208 41.591 120.747 41.5858H111.303H111.208C110.777 41.5858 110.306 41.5652 110.142 41.0456H109.84C109.837 41.5602 109.802 42.0593 109.732 42.5544C109.678 43.0652 109.595 43.5566 109.526 44.048H109.919C110.16 42.7517 110.317 42.3313 111.684 42.3507V42.4333V42.5145C110.33 42.539 110.358 42.7712 110.059 44.146L110.046 44.2092H109.982H109.341L109.351 44.1124C109.425 43.5914 109.517 43.0728 109.572 42.5312C109.648 42.0153 109.684 41.4994 109.684 40.9655V40.8842H109.761H110.264L110.277 40.9423C110.402 41.4117 110.742 41.4143 111.208 41.422H111.303H120.747C121.258 41.4143 121.629 41.4066 121.66 40.9202L121.668 40.8325L121.751 40.8506L122.267 40.9332L122.256 41.0145C122.182 41.5123 122.11 42.0153 122.057 42.5144C122.02 43.0096 122.02 43.5126 122.02 44.0143V44.0723L121.969 44.093L121.32 44.3327L121.315 44.2244C121.267 43.5254 121.194 42.5143 120.037 42.5143H117.114V52.33C117.131 53.7332 117.679 53.8299 118.551 53.848H118.981V53.928V54.5676L118.903 54.5679Z" fill="white"/>
<path d="M122.763 53.928H123.02C123.678 53.928 124.375 53.8379 124.375 52.8692V43.1244C124.375 42.1544 123.678 42.0629 123.02 42.0629H122.763V41.5045C123.878 41.5045 125.785 41.578 127.32 41.578C128.862 41.578 130.763 41.5045 132.008 41.5045C131.977 42.3028 131.994 43.5332 132.048 44.3497L131.496 44.4992C131.408 43.2909 131.189 42.3249 129.265 42.3249H126.721V47.196H128.898C129.996 47.196 130.236 46.5654 130.344 45.5582H130.893C130.857 46.2868 130.838 47.0117 130.838 47.7365C130.838 48.4446 130.857 49.15 130.893 49.8568L130.344 49.9675C130.236 48.8521 130.18 48.1272 128.915 48.1272H126.721V52.4592C126.721 53.6702 127.779 53.6702 128.952 53.6702C131.151 53.6702 132.119 53.5193 132.669 51.4017L133.183 51.5293C132.943 52.5172 132.724 53.5013 132.562 54.4892C131.388 54.4892 129.281 54.4157 127.635 54.4157C125.984 54.4157 123.807 54.4892 122.763 54.4892V53.928Z" fill="white"/>
<path d="M132.559 54.5678C131.383 54.5678 129.278 54.4916 127.633 54.4916C125.984 54.4916 123.807 54.5678 122.762 54.5678H122.685V54.4892V53.9282V53.8482H122.762H123.019C123.683 53.8379 124.285 53.7786 124.294 52.8693V43.1244C124.285 42.2164 123.683 42.1558 123.019 42.1416H122.685V42.0631V41.4247H122.762C123.879 41.4247 125.784 41.4956 127.32 41.4956C128.86 41.4956 130.76 41.4247 132.007 41.4247H132.089L132.086 41.5072C132.073 41.7871 132.068 42.1171 132.068 42.468C132.068 43.1115 132.086 43.8143 132.123 44.3445L132.125 44.4116L132.064 44.4298L131.42 44.6L131.417 44.5046C131.309 43.2974 131.15 42.4217 129.264 42.4037H126.797L126.794 47.1123H128.897C129.951 47.102 130.14 46.5539 130.265 45.5518L130.271 45.4783H130.342H130.974L130.972 45.562C130.937 46.2868 130.914 47.0116 130.914 47.7364C130.914 48.4406 130.937 49.146 130.972 49.8541L130.974 49.92L130.908 49.9353L130.271 50.0643L130.265 49.9766C130.139 48.8416 130.13 48.22 128.914 48.206L126.797 48.2045V52.4592C126.798 53.589 127.758 53.5825 128.952 53.589C131.156 53.5761 132.04 53.4679 132.593 51.3785L132.611 51.3037L132.688 51.3178L133.275 51.4712L133.257 51.5487C133.021 52.534 132.801 53.5167 132.637 54.5019L132.622 54.5678H132.559ZM132.492 54.4053C132.651 53.4676 132.86 52.5263 133.085 51.5898L132.723 51.497C132.175 53.5787 131.113 53.7642 128.952 53.7502C127.798 53.7502 126.643 53.7502 126.638 52.4591V48.0458H128.914C130.192 48.0316 130.323 48.8157 130.413 49.8746L130.81 49.7909C130.774 49.1059 130.757 48.4185 130.757 47.7363C130.757 47.036 130.774 46.3397 130.81 45.6392H130.413C130.312 46.6078 130.013 47.2887 128.897 47.2758H126.638V42.2409H129.264C131.169 42.2279 131.485 43.2262 131.566 44.396L131.961 44.2876C131.93 43.7627 131.908 43.0895 131.908 42.4679C131.908 42.1494 131.916 41.8489 131.926 41.5858C130.681 41.5909 128.827 41.658 127.32 41.658C125.815 41.658 123.962 41.5909 122.841 41.5858V41.9804H123.018C123.671 41.9804 124.451 42.0965 124.453 43.1244V52.8693C124.451 53.8946 123.671 54.0081 123.018 54.0133H122.841V54.4053C123.909 54.4039 126.025 54.3344 127.633 54.3344C129.249 54.3344 131.311 54.4039 132.492 54.4053Z" fill="white"/>
<path d="M135.653 43.4752C135.653 42.1185 134.922 42.063 134.351 42.063H134.022V41.5033C134.609 41.5033 135.743 41.5781 136.861 41.5781C137.959 41.5781 138.839 41.5033 139.808 41.5033C142.114 41.5033 144.168 42.1365 144.168 44.7804C144.168 46.4505 143.07 47.4745 141.623 48.0536L144.753 52.8125C145.266 53.5992 145.631 53.8198 146.53 53.928V54.4891C145.925 54.4891 145.339 54.4156 144.735 54.4156C144.168 54.4156 143.58 54.4891 143.015 54.4891C141.605 52.61 140.394 50.6007 139.203 48.4598H137.999V52.4424C137.999 53.8765 138.655 53.9281 139.497 53.9281H139.827V54.4892C138.781 54.4892 137.723 54.4157 136.678 54.4157C135.798 54.4157 134.937 54.4892 134.022 54.4892V53.9281H134.351C135.032 53.9281 135.653 53.616 135.653 52.926V43.4752ZM137.998 47.7905H138.892C140.725 47.7905 141.712 47.0839 141.712 44.8887C141.712 43.2353 140.669 42.1739 139.037 42.1739C138.487 42.1739 138.254 42.232 137.998 42.2487V47.7905H137.998Z" fill="white"/>
<path d="M146.53 54.5678C145.917 54.5678 145.334 54.493 144.732 54.493C144.173 54.493 143.589 54.5678 142.95 54.5369C141.546 52.6656 140.342 50.6678 139.158 48.5424H138.076V52.44C138.095 53.8393 138.649 53.8277 139.496 53.8483H139.906V53.9283V54.568H139.825C138.778 54.568 137.716 54.4932 136.676 54.4932C135.8 54.4932 134.942 54.568 134.023 54.568H133.942V54.488V53.8483H134.023H134.351C135.012 53.8445 135.568 53.553 135.571 52.9262V43.4755C135.557 42.1549 134.92 42.1625 134.351 42.1433H133.942V42.0633V41.4224H134.023C134.616 41.4224 135.746 41.4957 136.861 41.4957C137.954 41.4957 138.834 41.4224 139.81 41.4224C142.117 41.4275 144.243 42.0749 144.249 44.7755C144.249 46.456 143.156 47.5044 141.742 48.09L144.819 52.7689C145.331 53.5401 145.65 53.7324 146.542 53.8483L146.609 53.8586V53.9283V54.568H146.53V54.5678ZM137.996 48.3798H139.248L139.27 48.4211C140.464 50.5581 141.666 52.5648 143.015 54.4091C143.574 54.4091 144.162 54.333 144.732 54.333C145.317 54.333 145.881 54.3975 146.451 54.4065V53.999C145.592 53.8906 145.189 53.6301 144.689 52.8576L141.502 48.0147L141.593 47.9773C143.025 47.4048 144.086 46.4105 144.087 44.775C144.086 42.1944 142.112 41.5961 139.81 41.5858C138.843 41.5858 137.964 41.6593 136.861 41.6593C135.785 41.6593 134.699 41.5909 134.1 41.5858V41.9804H134.351C134.92 41.9818 135.73 42.0771 135.73 43.4753V52.9259C135.73 53.6727 135.041 54.0131 134.351 54.0144H134.1V54.4064C134.981 54.4038 135.816 54.333 136.676 54.333C137.7 54.333 138.733 54.4039 139.746 54.4064V54.0144H139.496C138.66 54.013 137.916 53.9074 137.916 52.4397V48.3798H137.996H137.996ZM137.996 47.8691H137.916V42.1739L137.986 42.1674C138.236 42.1482 138.484 42.0952 139.038 42.0952C140.706 42.0952 141.791 43.1966 141.793 44.8924C141.788 47.1132 140.739 47.8677 138.893 47.869H137.996V47.8691ZM138.893 47.7093C140.706 47.6937 141.618 47.0541 141.637 44.8925C141.627 43.2675 140.633 42.259 139.037 42.2525C138.542 42.2525 138.31 42.299 138.076 42.3197V47.7093H138.893Z" fill="white"/>
<path d="M158.964 50.8225L158.997 50.7864V43.8118C158.997 42.2848 157.955 42.063 157.406 42.063H157.005V41.5044C157.865 41.5044 158.705 41.5779 159.568 41.5779C160.319 41.5779 161.067 41.5044 161.823 41.5044V42.063H161.547C160.778 42.063 159.917 42.2111 159.917 44.4244V52.8898C159.917 53.54 159.935 54.1898 160.025 54.7665H159.33L149.9 44.0892V51.7538C149.9 53.3723 150.211 53.9282 151.62 53.9282H151.932V54.4892C151.145 54.4892 150.357 54.4157 149.571 54.4157C148.744 54.4157 147.902 54.4892 147.079 54.4892V53.9282H147.333C148.598 53.9282 148.983 53.0562 148.983 51.5693V43.7345C148.983 42.6937 148.141 42.0631 147.318 42.0631H147.079V41.5047C147.773 41.5047 148.49 41.578 149.185 41.578C149.731 41.578 150.264 41.5047 150.814 41.5047L158.964 50.8225Z" fill="white"/>
<path d="M160.025 54.8463L159.271 54.8205L149.977 44.2994V51.7525C149.998 53.371 150.24 53.83 151.621 53.8482H152.009V53.9282V54.5679H151.928C151.136 54.5679 150.351 54.4916 149.566 54.4916C148.749 54.4916 147.903 54.5679 147.079 54.5679H146.996V54.4892V53.8482H147.079H147.333C148.542 53.8431 148.888 53.0525 148.9 51.5642V43.7345C148.898 42.7439 148.1 42.1431 147.318 42.1416H146.996V42.0631V41.4221H147.079C147.777 41.4221 148.493 41.4955 149.184 41.4955C149.723 41.4955 150.253 41.4221 150.868 41.4478L158.918 50.6537V43.8105C158.913 42.3325 157.938 42.1494 157.406 42.1418H156.922V42.0631V41.4221H157.002C157.868 41.4221 158.711 41.4955 159.567 41.4955C160.314 41.4955 161.064 41.4221 161.819 41.4221H161.899V41.5059V42.1418H161.819H161.547C160.791 42.1624 160.013 42.2306 159.994 44.4245V52.8886C159.994 53.5386 160.01 54.1834 160.103 54.756L160.113 54.8463H160.025ZM159.33 54.6838H159.932C159.851 54.1254 159.834 53.5063 159.834 52.8886V44.4244C159.835 42.1918 160.762 41.9856 161.547 41.9791H161.738V41.5858C161.02 41.5909 160.295 41.658 159.567 41.658C158.726 41.658 157.91 41.5909 157.08 41.5858V41.9791H157.406C157.969 41.9856 159.079 42.2358 159.079 43.8105L159.054 50.8418L159.018 50.8805L158.963 50.9398L150.812 41.5859C150.269 41.5859 149.738 41.6581 149.184 41.6581C148.506 41.6581 147.822 41.5911 147.155 41.5859V41.9793H147.317C148.177 41.9857 149.06 42.6447 149.06 43.7345V51.5641C149.06 53.0575 148.646 54.008 147.333 54.0132L147.155 54.0119V54.4052C147.946 54.4014 148.763 54.3343 149.567 54.3343C150.335 54.3343 151.096 54.4014 151.852 54.4052V54.0132H151.621C150.179 54.0119 149.818 53.371 149.816 51.7523V43.8827L159.33 54.6838ZM158.918 50.7864V50.7798L158.904 50.7657L158.918 50.7864Z" fill="white"/>
<path d="M164.768 51.8285C164.582 52.4591 164.361 52.9466 164.361 53.2781C164.361 53.8378 165.132 53.9281 165.734 53.9281H165.939V54.4891C165.205 54.449 164.457 54.4156 163.719 54.4156C163.06 54.4156 162.404 54.4493 161.744 54.4891V53.9281H161.854C162.568 53.9281 163.174 53.5011 163.444 52.7184L166.378 44.1831C166.614 43.4944 166.947 42.5646 167.058 41.8747C167.641 41.6722 168.374 41.3008 168.721 41.0764C168.778 41.0572 168.81 41.0377 168.867 41.0377C168.922 41.0377 168.957 41.0377 168.998 41.0958C169.051 41.2428 169.105 41.4117 169.163 41.56L172.532 51.2894C172.752 51.9394 172.969 52.6268 173.207 53.1865C173.428 53.7076 173.813 53.9281 174.419 53.9281H174.527V54.4891C173.703 54.4491 172.878 54.4157 172.001 54.4157C171.104 54.4157 170.185 54.4493 169.252 54.4891V53.9281H169.455C169.874 53.9281 170.591 53.8559 170.591 53.3903C170.591 53.1491 170.425 52.6474 170.221 52.0503L169.509 49.8927H165.352L164.768 51.8285ZM167.44 43.5874H167.403L165.7 48.8519H169.122L167.44 43.5874Z" fill="white"/>
<path d="M174.522 54.5679C173.698 54.5305 172.874 54.4917 172.001 54.4917C171.103 54.4917 170.191 54.5305 169.254 54.5679L169.172 54.5731V54.4893V53.8457H169.252H169.454C169.878 53.8457 170.508 53.7477 170.508 53.3906C170.513 53.1789 170.348 52.6682 170.146 52.0764L169.448 49.9729H165.409L164.84 51.8519C164.654 52.4864 164.435 52.9778 164.436 53.2808C164.442 53.7349 165.127 53.8457 165.734 53.8457H166.016V53.9295V54.5731L165.933 54.5679C165.201 54.5305 164.453 54.4917 163.722 54.4917C163.066 54.4917 162.406 54.5305 161.749 54.5679L161.664 54.5731V54.4893V53.8457H161.744H161.853C162.535 53.8431 163.104 53.4499 163.368 52.6929L166.301 44.1565C166.541 43.4665 166.871 42.5392 167.029 41.7976C167.603 41.6003 168.339 41.2263 168.692 40.9993C168.743 40.9825 168.794 40.9568 168.868 40.9568C168.913 40.9555 169.012 40.9671 169.07 41.0652C169.122 41.2186 169.179 41.3838 169.235 41.5347L172.608 51.2629C172.824 51.9154 173.043 52.6028 173.282 53.1521C173.494 53.6488 173.83 53.8434 174.419 53.846H174.606V53.9298V54.5734L174.522 54.5679ZM169.332 54.4016C170.238 54.3693 171.126 54.3332 172.001 54.3332C172.852 54.3332 173.648 54.3693 174.444 54.4016V54.0132H174.419C173.792 54.0171 173.359 53.767 173.134 53.2189C172.895 52.654 172.672 51.9641 172.457 51.3128L169.085 41.586C169.03 41.4377 168.976 41.2687 168.928 41.1372C168.913 41.1191 168.916 41.1191 168.901 41.1191H168.868C168.83 41.1191 168.808 41.1307 168.761 41.1436C168.408 41.3771 167.673 41.742 167.131 41.8878C167.018 42.5919 166.689 43.5205 166.45 44.2092L163.519 52.7469C163.24 53.5542 162.598 54.0147 161.853 54.0132H161.824V54.4016C162.451 54.3693 163.086 54.3332 163.722 54.3332C164.43 54.3332 165.154 54.3693 165.852 54.4016V54.0132H165.734C165.138 54.0055 164.305 53.9372 164.282 53.2807C164.284 52.9093 164.509 52.4335 164.687 51.8054L164.768 51.8298L164.687 51.8027L165.291 49.814H169.56L170.295 52.0247C170.501 52.6218 170.667 53.117 170.667 53.3905C170.642 53.9618 169.869 54.0018 169.454 54.0134H169.331L169.332 54.4016ZM165.588 48.9319L167.342 43.5062H167.403H167.441H167.495L169.234 48.9319H165.588ZM165.808 48.7707H169.013L167.419 43.7861L165.808 48.7707Z" fill="white"/>
<path d="M175.332 42.4331C173.958 42.4331 173.904 42.7685 173.628 44.1252H173.078C173.151 43.6054 173.243 43.0857 173.301 42.544C173.374 42.023 173.407 41.5044 173.407 40.9654H173.849C173.995 41.5239 174.455 41.5045 174.946 41.5045H184.398C184.89 41.5045 185.347 41.4865 185.385 40.9269L185.823 41.0017C185.753 41.5045 185.681 42.0063 185.625 42.5092C185.586 43.011 185.586 43.5139 185.586 44.0143L185.037 44.2219C185.003 43.5345 184.912 42.4331 183.684 42.4331H180.68V52.3301C180.68 53.7643 181.323 53.9282 182.199 53.9282H182.547V54.4892C181.833 54.4892 180.553 54.4157 179.562 54.4157C178.465 54.4157 177.181 54.4892 176.468 54.4892V53.9282H176.814C177.824 53.9282 178.337 53.8365 178.337 52.3688V42.4331H175.332Z" fill="white"/>
<path d="M182.547 54.5679C181.828 54.5679 180.546 54.4931 179.563 54.4931C178.468 54.4931 177.185 54.5679 176.468 54.5679H176.387V54.4892V53.8482H176.468H176.814C177.824 53.8237 178.229 53.8108 178.255 52.3689L178.252 42.5145H175.332V42.4331V42.3506H178.413V52.3689C178.413 53.861 177.82 54.008 176.814 54.0119H176.545V54.4091C177.27 54.4013 178.5 54.3343 179.563 54.3343C180.519 54.3343 181.743 54.4015 182.467 54.4091V54.0119H182.196C181.316 54.008 180.603 53.7927 180.6 52.3302V42.3506H183.683C184.913 42.3558 185.074 43.4172 185.108 44.1071L185.508 43.9588C185.508 43.4739 185.51 42.9877 185.545 42.5002C185.596 42.0217 185.664 41.5445 185.732 41.0698L185.455 41.0221C185.371 41.5638 184.854 41.5936 184.399 41.5857H174.946H174.854C174.422 41.5908 173.955 41.5651 173.788 41.0427H173.488C173.483 41.5586 173.449 42.0591 173.377 42.5544C173.328 43.0664 173.238 43.559 173.17 44.0478H173.562C173.805 42.7516 173.964 42.3311 175.332 42.3506V42.4331L175.332 42.5144C173.975 42.5377 174.005 42.771 173.705 44.1458L173.692 44.209H173.628H172.985L172.997 44.116C173.073 43.5913 173.164 43.0727 173.218 42.5349C173.293 42.0152 173.328 41.4993 173.328 40.9654V40.8841H173.407H173.907L173.923 40.9421C174.051 41.4116 174.385 41.4142 174.853 41.4219L174.946 41.4245H184.398C184.904 41.4143 185.273 41.4064 185.305 40.9216L185.31 40.8326L185.396 40.8508L185.916 40.9334L185.902 41.0146C185.827 41.5124 185.757 42.0154 185.701 42.5145C185.664 43.0098 185.664 43.514 185.664 44.0144V44.0725L185.613 44.0931L184.964 44.333L184.96 44.2245C184.913 43.5256 184.84 42.5144 183.683 42.5144H180.759V52.3302C180.778 53.7333 181.325 53.8301 182.196 53.8481H182.626V53.9281V54.5678L182.547 54.5679Z" fill="white"/>
<path d="M186.499 53.928H186.756C187.417 53.928 188.109 53.8379 188.109 52.8692V43.1244C188.109 42.1544 187.417 42.0629 186.756 42.0629H186.499V41.5045C187.214 41.5045 188.311 41.578 189.206 41.578C190.126 41.578 191.225 41.5045 192.085 41.5045V42.0629H191.829C191.17 42.0629 190.471 42.1545 190.471 43.1244V52.8692C190.471 53.8379 191.17 53.928 191.829 53.928H192.085V54.4892C191.205 54.4892 190.106 54.4157 189.193 54.4157C188.294 54.4157 187.214 54.4892 186.499 54.4892V53.928Z" fill="white"/>
<path d="M192.086 54.5678C191.201 54.5678 190.105 54.4916 189.192 54.4916C188.297 54.4916 187.215 54.5678 186.5 54.5678H186.42V54.4892V53.9282V53.8482H186.5H186.756C187.418 53.8379 188.025 53.7798 188.028 52.8693V43.1244C188.025 42.2164 187.418 42.1544 186.756 42.1416H186.42V42.0631V41.4247H186.5C187.215 41.4247 188.315 41.4956 189.207 41.4956C190.12 41.4956 191.219 41.4247 192.086 41.4247H192.164V41.5045V42.1416H192.086H191.83C191.16 42.1545 190.56 42.2164 190.551 43.1244V52.8693C190.56 53.7798 191.161 53.8379 191.83 53.8482H192.164V53.9282V54.5678H192.086ZM192.004 54.4053V54.0119H191.83C191.173 54.0119 190.396 53.8946 190.396 52.8693V43.1244C190.396 42.0965 191.173 41.9804 191.83 41.9804H192.004V41.5858C191.158 41.5909 190.1 41.658 189.207 41.658C188.34 41.658 187.29 41.5909 186.58 41.5858V41.9804H186.757C187.408 41.9804 188.188 42.0965 188.19 43.1244V52.8693C188.188 53.8945 187.408 54.0119 186.757 54.0119H186.58V54.4053C187.286 54.3975 188.322 54.3343 189.192 54.3343C190.08 54.3343 191.14 54.4015 192.004 54.4053Z" fill="white"/>
<path d="M199.389 41.226C203.293 41.226 206.404 43.6841 206.404 47.6447C206.404 51.924 203.383 54.7676 199.485 54.7676C195.599 54.7676 192.635 52.0888 192.635 48.0896C192.635 44.2219 195.581 41.226 199.389 41.226ZM199.666 53.9487C203.219 53.9487 203.838 50.7657 203.838 48.0535C203.838 45.3349 202.395 42.0436 199.354 42.0436C196.149 42.0436 195.197 44.9454 195.197 47.4358C195.197 50.7657 196.699 53.9487 199.666 53.9487Z" fill="white"/>
<path d="M192.553 48.0897C192.56 44.1768 195.542 41.1499 199.389 41.1448V41.226V41.3046C195.625 41.3046 192.711 44.2619 192.708 48.0896C192.717 52.0438 195.639 54.6824 199.484 54.6837C203.345 54.6824 206.323 51.8787 206.329 47.6409C206.325 43.7306 203.261 41.3097 199.389 41.3046V41.226V41.1448C203.323 41.1474 206.476 43.63 206.484 47.6409C206.48 51.9651 203.419 54.8386 199.484 54.8462C195.568 54.8385 192.56 52.1327 192.553 48.0896H192.553V48.0897ZM195.118 47.4358C195.123 44.934 196.086 41.9599 199.355 41.9599C202.463 41.9677 203.915 45.3209 203.92 48.0536C203.915 50.7658 203.286 54.0263 199.667 54.0263V53.9489V53.8688C203.149 53.8638 203.752 50.7658 203.761 48.0536C203.761 45.357 202.331 42.1289 199.355 42.1249C196.213 42.1288 195.283 44.9584 195.277 47.4358C195.28 50.749 196.767 53.861 199.667 53.8688V53.9489V54.0263C196.627 54.0223 195.123 50.7853 195.118 47.4358Z" fill="white"/>
<path d="M218.745 50.8225L218.782 50.7864V43.8118C218.782 42.2848 217.735 42.063 217.186 42.063H216.789V41.5044C217.648 41.5044 218.49 41.5779 219.348 41.5779C220.101 41.5779 220.852 41.5044 221.603 41.5044V42.063H221.327C220.559 42.063 219.697 42.2111 219.697 44.4244V52.8898C219.697 53.54 219.715 54.1898 219.808 54.7665H219.113L209.68 44.0892V51.7538C209.68 53.3723 209.99 53.9282 211.4 53.9282H211.713V54.4892C210.925 54.4892 210.139 54.4157 209.351 54.4157C208.527 54.4157 207.683 54.4892 206.858 54.4892V53.9282H207.116C208.382 53.9282 208.762 53.0562 208.762 51.5693V43.7345C208.762 42.6937 207.924 42.0631 207.097 42.0631H206.858V41.5047C207.554 41.5047 208.269 41.578 208.964 41.578C209.514 41.578 210.043 41.5047 210.595 41.5047L218.745 50.8225Z" fill="white"/>
<path d="M219.81 54.8463L219.052 54.8192L209.76 44.2993V51.7537C209.78 53.371 210.022 53.8288 211.398 53.8456H211.794V53.9294V54.5678H211.714C210.92 54.5678 210.134 54.493 209.352 54.493C208.53 54.493 207.689 54.5678 206.857 54.5678H206.781V54.4879V53.8456H206.857H207.117C208.324 53.8419 208.671 53.0526 208.686 51.5693V43.7345C208.684 42.744 207.885 42.143 207.097 42.1417H206.781V42.0631V41.4247H206.857C207.56 41.4247 208.273 41.4957 208.964 41.4957C209.508 41.4957 210.036 41.4247 210.656 41.4519L218.702 50.6538V43.8133C218.697 42.3329 217.722 42.1548 217.186 42.1419H216.705V42.0633V41.4249H216.787C217.649 41.4249 218.494 41.4959 219.346 41.4959C220.098 41.4959 220.844 41.4249 221.604 41.4249H221.682V41.5048V42.1419H221.604H221.327C220.574 42.1638 219.794 42.2334 219.779 44.4246V52.8888C219.779 53.5388 219.793 54.1874 219.882 54.7561L219.897 54.8464H219.81V54.8463ZM219.114 54.6838H219.713C219.633 54.1253 219.619 53.5063 219.619 52.8885V44.4244C219.619 42.188 220.543 41.9856 221.327 41.9791H221.525V41.5858C220.803 41.5909 220.079 41.658 219.346 41.658C218.513 41.658 217.694 41.5909 216.865 41.5858V41.9791H217.186C217.754 41.9856 218.859 42.2398 218.859 43.813L218.839 50.8418L218.804 50.8806L218.746 50.9398L210.595 41.5859C210.056 41.5859 209.521 41.6581 208.965 41.6581C208.29 41.6581 207.603 41.5911 206.937 41.5859V41.9792H207.098C207.958 41.9857 208.843 42.6447 208.843 43.7345V51.5693C208.843 53.0563 208.434 54.0081 207.117 54.0133L206.937 54.0119V54.4053C207.732 54.4015 208.547 54.3344 209.352 54.3344C210.115 54.3344 210.873 54.4015 211.634 54.4053V54.0133H211.398C209.961 54.0119 209.601 53.371 209.601 51.7536V43.8801L219.114 54.6838ZM218.702 50.7864V50.7798L218.687 50.7657L218.702 50.7864Z" fill="white"/>
<path d="M224.547 51.8285C224.368 52.4591 224.145 52.9466 224.145 53.2781C224.145 53.8378 224.916 53.9281 225.517 53.9281H225.721V54.4891C224.989 54.449 224.237 54.4156 223.504 54.4156C222.842 54.4156 222.186 54.4493 221.529 54.4891V53.9281H221.633C222.351 53.9281 222.958 53.5011 223.229 52.7184L226.162 44.1831C226.398 43.4944 226.73 42.5646 226.837 41.8747C227.423 41.6722 228.155 41.3008 228.506 41.0764C228.558 41.0572 228.595 41.0377 228.651 41.0377C228.706 41.0377 228.74 41.0377 228.777 41.0958C228.833 41.2428 228.89 41.4117 228.945 41.56L232.312 51.2894C232.532 51.9394 232.751 52.6268 232.992 53.1865C233.211 53.7076 233.598 53.9281 234.199 53.9281H234.311V54.4891C233.486 54.4491 232.662 54.4157 231.782 54.4157C230.886 54.4157 229.969 54.4493 229.035 54.4891V53.9281H229.238C229.656 53.9281 230.375 53.8559 230.375 53.3903C230.375 53.1491 230.208 52.6474 230.004 52.0503L229.293 49.8927H225.135L224.547 51.8285ZM227.224 43.5874H227.187L225.481 48.8519H228.909L227.224 43.5874Z" fill="white"/>
<path d="M234.303 54.5679C233.479 54.5344 232.657 54.4931 231.782 54.4931C230.889 54.4931 229.972 54.5344 229.037 54.5679L228.956 54.5731V54.488V53.8483H229.035H229.234C229.661 53.8483 230.292 53.7477 230.293 53.3904C230.297 53.1788 230.132 52.6721 229.927 52.0763L229.232 49.9728H225.189L224.623 51.8517C224.44 52.4888 224.222 52.9776 224.226 53.2782C224.226 53.7348 224.911 53.8483 225.517 53.8483H225.796V53.9282V54.5731L225.715 54.5679C224.982 54.5344 224.233 54.4931 223.504 54.4931C222.848 54.4931 222.19 54.5344 221.529 54.5679L221.449 54.5731V54.488V53.8483H221.529H221.633C222.317 53.8456 222.888 53.4472 223.155 52.6927L226.086 44.1563C226.319 43.4663 226.65 42.5391 226.812 41.8001C227.388 41.5976 228.123 41.2262 228.478 40.999C228.526 40.9823 228.576 40.9604 228.651 40.9604C228.699 40.9552 228.793 40.9668 228.852 41.0687C228.906 41.2146 228.96 41.3834 229.02 41.5343L232.388 51.2625C232.607 51.915 232.827 52.6025 233.064 53.1557C233.278 53.6484 233.613 53.8431 234.197 53.8483H234.387V53.9282V54.5731L234.303 54.5679ZM229.113 54.404C230.019 54.3692 230.91 54.3331 231.782 54.3331C232.634 54.3331 233.432 54.3692 234.23 54.4014L234.227 54.0131H234.197C233.577 54.0145 233.144 53.7669 232.917 53.2188C232.675 52.6539 232.457 51.9639 232.239 51.3151L228.868 41.5859C228.813 41.4375 228.758 41.2686 228.713 41.1422C228.698 41.119 228.699 41.119 228.685 41.119H228.651C228.613 41.119 228.592 41.1319 228.548 41.1448C228.191 41.3731 227.457 41.7444 226.915 41.8876C226.802 42.5918 226.469 43.5191 226.233 44.2091L223.301 52.7468C223.023 53.5541 222.383 54.0145 221.633 54.0131H221.607V54.4014C222.237 54.3692 222.866 54.3331 223.504 54.3331C224.214 54.3331 224.936 54.3692 225.641 54.4014V54.0131H225.517C224.921 54.0054 224.086 53.9397 224.064 53.2781C224.068 52.9093 224.295 52.436 224.472 51.8053L224.547 51.8297L224.472 51.8026L225.075 49.8139H229.346L230.08 52.0244C230.282 52.623 230.448 53.1169 230.448 53.3903C230.421 53.9616 229.653 54.0015 229.234 54.0131H229.113V54.404H229.113ZM225.372 48.9307L227.128 43.5062H227.184H227.224H227.281L229.012 48.9307H225.372ZM225.592 48.7707H228.795L227.202 43.7886L225.592 48.7707Z" fill="white"/>
<path d="M238.926 52.6654C238.926 53.4097 239.434 53.6314 240.021 53.7075C240.771 53.7642 241.596 53.7642 242.441 53.6701C243.208 53.5761 243.869 53.1298 244.196 52.6654C244.488 52.2553 244.654 51.7343 244.764 51.3254H245.295C245.094 52.3856 244.838 53.4302 244.617 54.489C243.009 54.489 241.394 54.4155 239.785 54.4155C238.171 54.4155 236.562 54.489 234.95 54.489V53.9279H235.201C235.865 53.9279 236.581 53.8378 236.581 52.6835V43.1244C236.581 42.1544 235.864 42.0629 235.201 42.0629H234.95V41.5045C235.918 41.5045 236.871 41.578 237.841 41.578C238.778 41.578 239.692 41.5045 240.627 41.5045V42.0629H240.166C239.472 42.0629 238.926 42.0836 238.926 43.0663V52.6654Z" fill="white"/>
<path d="M244.616 54.5678C243.002 54.5678 241.391 54.493 239.784 54.493C238.171 54.493 236.56 54.5678 234.946 54.5678H234.868V54.4879V53.8482H234.946H235.201C235.865 53.8327 236.493 53.7863 236.5 52.6836V43.1207C236.492 42.2167 235.869 42.1548 235.201 42.1417H234.868V42.0632V41.4248H234.946C235.92 41.4248 236.874 41.4957 237.841 41.4957C238.771 41.4957 239.685 41.4248 240.626 41.4248H240.701V41.5048V42.1417H240.626H240.166C239.457 42.1624 239.015 42.1288 239.001 43.0666V52.6657C239.006 53.3582 239.453 53.5452 240.024 53.6265C240.348 53.6497 240.687 53.6639 241.04 53.6639C241.488 53.6639 241.954 53.642 242.427 53.5904C243.174 53.5015 243.816 53.0642 244.131 52.6205C244.413 52.2233 244.576 51.7126 244.685 51.3064L244.701 51.2446H244.762H245.391L245.374 51.3426C245.168 52.4066 244.916 53.4461 244.694 54.5049L244.679 54.5681H244.616H244.616V54.5678ZM244.55 54.4053C244.762 53.3968 245.002 52.4101 245.199 51.4041H244.823C244.709 51.8091 244.546 52.3082 244.258 52.7144C243.916 53.1968 243.238 53.6507 242.445 53.75C241.965 53.8003 241.49 53.8261 241.04 53.8261C240.686 53.8261 240.342 53.8094 240.01 53.786C239.415 53.719 238.837 53.461 238.839 52.6654V43.0663C238.839 42.0333 239.483 41.9804 240.166 41.9804H240.545V41.5858C239.642 41.5909 238.753 41.6591 237.841 41.6591C236.892 41.6591 235.965 41.5909 235.026 41.5858V41.9804H235.201C235.855 41.9804 236.655 42.0965 236.655 43.1205V52.6835C236.655 53.8867 235.859 54.0118 235.201 54.0118H235.026V54.4052C236.609 54.4039 238.193 54.3343 239.784 54.3343C241.375 54.3343 242.965 54.4039 244.55 54.4053Z" fill="white"/>
<path d="M245.073 40.9758C246.176 40.9758 247 41.8373 247 42.9413C247 44.0401 246.176 44.8939 245.073 44.8939C243.969 44.8939 243.144 44.0401 243.144 42.9413C243.143 41.8375 243.969 40.9758 245.073 40.9758ZM245.073 44.5289C245.935 44.5289 246.598 43.7809 246.598 42.9413C246.598 42.0966 245.945 41.3421 245.073 41.3421C244.205 41.3421 243.542 42.0967 243.542 42.9413C243.542 43.7809 244.205 44.5289 245.073 44.5289ZM244.113 43.9731V43.8763C244.35 43.8428 244.393 43.8505 244.393 43.7009V42.2513C244.393 42.0477 244.371 41.978 244.121 41.9882V41.8889H245.108C245.448 41.8889 245.759 42.0527 245.759 42.4087C245.759 42.7001 245.569 42.9155 245.304 42.9993L245.62 43.448C245.768 43.6518 245.935 43.8428 246.045 43.9097V43.9729H245.669C245.489 43.9729 245.332 43.5873 244.976 43.0701H244.763V43.7214C244.763 43.8504 244.807 43.8427 245.045 43.8762V43.9729L244.113 43.9731ZM244.763 42.9413H244.99C245.239 42.9413 245.356 42.7491 245.356 42.4409C245.356 42.1288 245.175 42.0191 244.977 42.0191H244.763V42.9413Z" fill="white"/>
</g>
<defs>
<clipPath id="clip0_1194_1601">
<rect width="247" height="65" fill="white"/>
</clipPath>
</defs>
</svg>
