<svg width="123" height="132" viewBox="0 0 123 132" fill="none" xmlns="http://www.w3.org/2000/svg">
<g clip-path="url(#clip0_1198_1797)">
<path fill-rule="evenodd" clip-rule="evenodd" d="M75.9438 9V45.1765H112.12V132H10.8262V9H75.9438ZM61.4805 95.8235H32.532V103.066H61.4805V95.8235ZM83.1791 81.353H32.532V88.5882H83.1791V81.353ZM75.9438 66.8823H32.532V74.1176H75.9438V66.8823ZM90.4144 52.4118H32.532V59.647H90.4144V52.4118ZM61.4805 37.9484H32.532V45.1837H61.4805V37.9484Z" fill="#182F59"/>
<path fill-rule="evenodd" clip-rule="evenodd" d="M106.835 31.1415C108.781 33.0805 110.156 35.4103 111.039 37.9426H83.1758V10.0795C85.7082 10.9622 88.0379 12.3441 89.9842 14.2832L106.835 31.1415Z" fill="#182F59"/>
</g>
<circle cx="94.5" cy="17.5" r="17.5" fill="#CC0D0D"/>
<path d="M97.824 25L94.678 20.27L91.906 25H87.638L92.588 17.146L87.528 9.556H91.906L95.008 14.22L97.736 9.556H102.004L97.098 17.344L102.202 25H97.824Z" fill="white"/>
<defs>
<clipPath id="clip0_1198_1797">
<rect width="123" height="123" fill="white" transform="translate(0 9)"/>
</clipPath>
</defs>
</svg>
