<svg width="221" height="221" viewBox="0 0 221 221" fill="none" xmlns="http://www.w3.org/2000/svg">
<path fill-rule="evenodd" clip-rule="evenodd" d="M83.0417 82.8773C77.9561 82.8773 73.8334 86.9999 73.8334 92.0856C73.8334 97.1714 77.9561 101.294 83.0417 101.294H138.292C143.377 101.294 147.5 97.1714 147.5 92.0856C147.5 86.9999 143.377 82.8773 138.292 82.8773H83.0417ZM83.0417 110.502C77.9561 110.502 73.8334 114.625 73.8334 119.711C73.8334 124.796 77.9561 128.919 83.0417 128.919H138.292C143.377 128.919 147.5 124.796 147.5 119.711C147.5 114.625 143.377 110.502 138.292 110.502H83.0417ZM115.105 0.00126961C121.356 -0.00830706 126.903 -0.0167785 132.026 2.10547C137.15 4.22771 141.067 8.15635 145.48 12.5831C154.224 21.3541 162.982 30.112 171.753 38.8561C176.179 43.2692 180.109 47.1859 182.23 52.3094C184.353 57.433 184.344 62.9805 184.334 69.2312C184.299 92.3987 184.333 115.566 184.333 138.734C184.334 146.897 184.334 153.931 183.577 159.562C182.765 165.599 180.935 171.385 176.242 176.079C171.549 180.771 165.763 182.602 159.727 183.413C154.094 184.17 147.061 184.17 138.898 184.169H82.4358C74.2726 184.17 67.2391 184.17 61.6066 183.413C55.5705 182.602 49.7844 180.771 45.0912 176.079C40.3981 171.385 38.568 165.599 37.7565 159.562C36.9992 153.931 36.9996 146.897 37 138.734L37.0001 46.0443C37.0001 45.8416 37 45.6394 37 45.4381C36.9996 37.275 36.9992 30.2416 37.7565 24.6092C38.568 18.573 40.3981 12.787 45.0913 8.09383C49.7844 3.40062 55.5705 1.57055 61.6066 0.759024C67.239 0.00173049 74.2725 0.00209901 82.4356 0.00255943C93.3256 0.00320401 104.215 0.0180288 115.105 0.00126961Z" fill="#182F59" fill-opacity="0.2"/>
</svg>
