<svg width="49" height="49" viewBox="0 0 49 49" fill="none" xmlns="http://www.w3.org/2000/svg">
<g clip-path="url(#clip0_1474_2181)">
<path fill-rule="evenodd" clip-rule="evenodd" d="M29.9171 0.54541V14.7968H44.1684V49H4.26465V0.54541H29.9171ZM24.2194 34.7486H12.8154V37.6018H24.2194V34.7486ZM32.7674 29.0481H12.8154V31.8984H32.7674V29.0481ZM29.9171 23.3476H12.8154V26.1978H29.9171V23.3476ZM35.6176 17.647H12.8154V20.4973H35.6176V17.647ZM24.2194 11.9493H12.8154V14.7996H24.2194V11.9493Z" fill="#182F59"/>
<path fill-rule="evenodd" clip-rule="evenodd" d="M42.086 9.26784C42.8527 10.0317 43.3943 10.9495 43.742 11.9471H32.7656V0.970703C33.7632 1.31844 34.681 1.86282 35.4477 2.62671L42.086 9.26784Z" fill="#182F59"/>
</g>
<defs>
<clipPath id="clip0_1474_2181">
<rect width="48.4546" height="48.4546" fill="white" transform="translate(0 0.54541)"/>
</clipPath>
</defs>
</svg>
