<svg width="89" height="89" viewBox="0 0 89 89" fill="none" xmlns="http://www.w3.org/2000/svg">
<path d="M14.834 18.542H59.334" stroke="#182F59" stroke-width="5" stroke-linecap="round"/>
<path d="M14.834 44.5002H37.084" stroke="#182F59" stroke-width="5" stroke-linecap="round"/>
<path d="M51.918 44.5002H74.168" stroke="#182F59" stroke-width="5" stroke-linecap="round"/>
<path d="M29.665 70.4585H74.165" stroke="#182F59" stroke-width="5" stroke-linecap="round"/>
<path d="M66.7507 25.9581C70.8468 25.9581 74.1673 22.6375 74.1673 18.5414C74.1673 14.4453 70.8468 11.1248 66.7507 11.1248C62.6545 11.1248 59.334 14.4453 59.334 18.5414C59.334 22.6375 62.6545 25.9581 66.7507 25.9581Z" stroke="#182F59" stroke-width="5" stroke-linecap="round"/>
<path d="M44.5007 51.9166C48.5968 51.9166 51.9173 48.596 51.9173 44.4999C51.9173 40.4038 48.5968 37.0833 44.5007 37.0833C40.4045 37.0833 37.084 40.4038 37.084 44.4999C37.084 48.596 40.4045 51.9166 44.5007 51.9166Z" stroke="#182F59" stroke-width="5" stroke-linecap="round"/>
<path d="M22.2507 77.8748C26.3468 77.8748 29.6673 74.5543 29.6673 70.4582C29.6673 66.3621 26.3468 63.0415 22.2507 63.0415C18.1545 63.0415 14.834 66.3621 14.834 70.4582C14.834 74.5543 18.1545 77.8748 22.2507 77.8748Z" stroke="#182F59" stroke-width="5" stroke-linecap="round"/>
</svg>
