<svg width="50" height="67" viewBox="0 0 50 67" fill="none" xmlns="http://www.w3.org/2000/svg">
<g clip-path="url(#clip0_1194_1576)">
<path d="M50.0005 26.2161C49.9557 26.2286 49.9592 26.2662 49.9609 26.302C49.9884 26.7874 49.9385 27.2709 49.9127 27.7545C49.8783 28.3831 49.8491 29.0118 49.763 29.6368C49.6959 30.1186 49.6684 30.6057 49.5875 31.0857C49.4877 31.6785 49.3827 32.2695 49.2743 32.8605C49.0971 33.8312 48.8562 34.784 48.5981 35.7333C48.3107 36.7971 47.9322 37.8269 47.5657 38.8621C47.2611 39.7217 46.9153 40.5671 46.547 41.3981C46.2201 42.1377 45.8691 42.8685 45.5043 43.592C44.9107 44.7723 44.286 45.931 43.5978 47.0539C42.9577 48.1017 42.3124 49.1476 41.5949 50.1398C41.0855 50.8436 40.5797 51.5511 40.0531 52.2424C39.413 53.0805 38.7557 53.9026 38.0967 54.7246C37.8265 55.0613 37.5375 55.3783 37.2553 55.7043C36.0645 57.078 34.8205 58.3997 33.5437 59.6856C32.9707 60.2605 32.3977 60.8372 31.7817 61.3638C31.3843 61.704 31.016 62.0801 30.6271 62.433C29.6722 63.2998 28.6982 64.1433 27.6968 64.9493C26.8588 65.6227 26.014 66.2835 25.1381 66.9032C25.0813 66.9426 25.0297 67.0554 24.9316 66.9623C25.016 66.8799 24.9764 66.7725 24.9764 66.6775C24.9781 59.4223 24.9781 52.1689 24.9798 44.9137C25.3291 44.903 25.675 44.8618 26.026 44.8672C26.5302 44.8743 27.0309 44.8081 27.5282 44.7311C28.127 44.6397 28.7206 44.5072 29.3091 44.3585C30.2916 44.1114 31.2397 43.7568 32.1723 43.3592C32.6576 43.1532 33.1273 42.9132 33.5799 42.6374C33.9653 42.4028 34.3593 42.1825 34.7327 41.9246C35.2971 41.536 35.8529 41.1348 36.3794 40.6889C36.7976 40.3342 37.2019 39.9617 37.596 39.5802C37.8437 39.3403 38.0795 39.0806 38.3066 38.8137C38.6921 38.3606 39.0689 37.9021 39.4251 37.4221C40.0893 36.532 40.6623 35.581 41.1526 34.5781C41.4641 33.9423 41.7497 33.2922 41.9786 32.6152C42.1575 32.0886 42.3468 31.5639 42.481 31.0248C42.6823 30.2207 42.8579 29.4094 42.9508 28.5784C43.0058 28.0912 43.0815 27.6023 43.0953 27.1133C43.1091 26.6352 43.128 26.1534 43.1125 25.6716C43.0919 25.0197 43.0661 24.3732 42.9852 23.7248C42.9026 23.0532 42.8062 22.3852 42.6548 21.7261C42.4432 20.802 42.1696 19.8993 41.8392 19.0128C41.5226 18.1603 41.1423 17.3418 40.7087 16.5538C39.456 14.2739 37.799 12.3612 35.7755 10.7941C34.9943 10.1905 34.1718 9.6568 33.3028 9.2019C32.6335 8.85087 31.9521 8.52312 31.2449 8.26343C30.7579 8.08434 30.2675 7.91419 29.7685 7.77271C29.008 7.55779 28.2371 7.39481 27.4525 7.29094C26.9638 7.22467 26.4734 7.18706 25.983 7.13512C25.6509 7.09931 25.3136 7.1011 24.9781 7.08677C24.9781 4.72269 24.9781 2.36041 24.9781 -0.00366211H26.3822C26.7057 0.109169 27.0464 0.0840952 27.3768 0.116333C27.8964 0.168271 28.4161 0.230954 28.9305 0.311548C29.5328 0.406469 30.1316 0.544373 30.7252 0.68765C31.6544 0.913312 32.5647 1.21419 33.4697 1.5312C34.1752 1.77835 34.8532 2.10072 35.5311 2.4231C36.173 2.72935 36.7735 3.10545 37.3946 3.44395C37.6803 3.59976 37.9418 3.79497 38.2223 3.95437C38.6766 4.21406 39.0895 4.53464 39.5145 4.83553C40.0721 5.22954 40.5762 5.6934 41.0941 6.13935C41.4779 6.46889 41.8547 6.80559 42.2126 7.16736C42.9232 7.88912 43.6029 8.63954 44.2379 9.43831C44.742 10.0741 45.2221 10.7278 45.6695 11.4084C46.0239 11.9474 46.3147 12.5277 46.6365 13.0865C46.8619 13.4769 47.077 13.8745 47.2887 14.2721C47.4349 14.5479 47.5502 14.8416 47.6724 15.1318C47.8393 15.5258 48.0165 15.9144 48.1748 16.3102C48.4209 16.9245 48.6239 17.5567 48.8201 18.1925C49.0816 19.045 49.2915 19.9083 49.4636 20.7823C49.5686 21.3214 49.6494 21.8658 49.7234 22.4138C49.8129 23.0855 49.8783 23.7589 49.9144 24.4358C49.9385 24.8693 49.9884 25.3027 49.9626 25.7379C49.9592 25.7827 49.9437 25.84 50.0022 25.8704V26.2143L50.0005 26.2161Z" fill="#263E67"/>
<path d="M24.9798 0C24.9798 2.36407 24.9798 4.72636 24.9798 7.09043C24.8559 7.09401 24.732 7.08685 24.6099 7.10297C24.295 7.14595 23.9767 7.09939 23.6669 7.14237C23.2144 7.20505 22.7567 7.22117 22.3059 7.29997C22.0546 7.34475 21.7948 7.37161 21.5488 7.4146C21.2906 7.46116 21.0239 7.53817 20.7624 7.60265C20.4028 7.6922 20.0277 7.76742 19.6904 7.89457C19.2929 8.04502 18.8782 8.15068 18.4894 8.33336C17.9387 8.59126 17.3726 8.81334 16.8358 9.09989C15.9823 9.5548 15.1615 10.067 14.3803 10.6491C14.1876 10.7924 13.9605 10.9231 13.797 11.0735C13.6387 11.2204 13.4546 11.3601 13.298 11.5159C12.7766 12.0317 12.2209 12.5081 11.7339 13.0669C11.302 13.5612 10.8908 14.0716 10.4864 14.5892C10.1182 15.0602 9.84973 15.6011 9.47118 16.0667C9.27158 16.3121 9.15113 16.6345 9.0238 16.9354C8.80699 17.4476 8.5248 17.924 8.31487 18.4398C8.02063 19.1633 7.77113 19.9012 7.54916 20.6498C7.28762 21.5292 7.11038 22.4283 6.98821 23.3381C6.8953 24.0312 6.83679 24.7314 6.83507 25.4371C6.83507 25.9117 6.82131 26.3917 6.83163 26.8645C6.84368 27.4089 6.90218 27.957 6.97273 28.5014C7.0536 29.1175 7.15856 29.7282 7.29106 30.3336C7.48722 31.2291 7.77285 32.0959 8.09118 32.9538C8.44564 33.9101 8.88098 34.8271 9.3731 35.7118C9.57958 36.0808 9.81876 36.4408 10.0683 36.7882C10.5931 37.5225 11.1196 38.2496 11.7236 38.9213C12.0453 39.2794 12.3878 39.6144 12.7285 39.9493C13.0709 40.2842 13.4253 40.603 13.8005 40.9003C14.6229 41.5522 15.4644 42.1772 16.3849 42.668C17.2384 43.1246 18.1142 43.5384 19.0262 43.8607C19.8659 44.1562 20.7159 44.4034 21.5866 44.5717C22.0391 44.6595 22.4917 44.7383 22.9494 44.7867C23.5035 44.844 24.0558 44.9246 24.615 44.9031C24.7372 44.8977 24.8611 44.912 24.985 44.9156C24.985 52.1708 24.985 59.4242 24.9815 66.6794C24.9815 66.7743 25.0211 66.8818 24.9368 66.9642C24.4137 66.6311 23.9336 66.2317 23.445 65.8484C22.447 65.0658 21.4765 64.2473 20.5232 63.4073C19.7764 62.75 19.0417 62.0766 18.319 61.3871C17.7477 60.8427 17.1971 60.2731 16.6207 59.7358C15.9548 59.1162 15.3439 58.4392 14.7141 57.7837C14.2891 57.3431 13.883 56.881 13.4787 56.419C12.9934 55.8656 12.5117 55.3104 12.0402 54.7444C11.5343 54.1355 11.0319 53.5212 10.5483 52.8926C10.1182 52.332 9.70003 51.7607 9.28018 51.1929C8.46285 50.0879 7.6937 48.9471 6.95552 47.7829C6.37048 46.8606 5.81126 45.9221 5.28644 44.9604C4.76163 43.9986 4.24542 43.0315 3.78772 42.0339C3.21989 40.7946 2.68819 39.5391 2.22705 38.2514C1.74009 36.8921 1.31336 35.5148 0.974379 34.1107C0.809192 33.4248 0.65605 32.7317 0.545926 32.0332C0.470215 31.555 0.368694 31.0804 0.298145 30.6004C0.239642 30.1993 0.21039 29.7909 0.169093 29.3862C0.105427 28.7611 0.0417616 28.1343 0.0400409 27.5056C0.0400409 27.4913 0.0159511 27.477 0.00390625 27.4645C0.00390625 27.2782 0.00390625 27.0919 0.00390625 26.9057C0.0744548 26.6764 0.0727341 26.4472 0.00390625 26.2179V25.7881C0.0710134 25.4729 0.0796169 25.1577 0.00390625 24.8425V24.6705C0.114031 24.3983 0.0572478 24.1028 0.0796169 23.8234C0.120914 23.2628 0.184579 22.7041 0.262011 22.1507C0.366973 21.3931 0.504629 20.6373 0.674978 19.8922C0.831561 19.2027 1.0346 18.524 1.24625 17.8488C1.49059 17.0697 1.77622 16.3067 2.08939 15.5527C2.48687 14.5928 2.94802 13.6669 3.45734 12.7714C3.97872 11.8544 4.55687 10.975 5.18837 10.1315C5.68048 9.476 6.18637 8.83304 6.74043 8.23486C7.22567 7.7119 7.71435 7.19072 8.23572 6.70358C8.75537 6.21823 9.28362 5.74542 9.83941 5.31021C10.7359 4.60636 11.672 3.96161 12.6527 3.38671C13.5682 2.84943 14.5059 2.36407 15.4747 1.94499C16.4693 1.51516 17.4896 1.16055 18.5358 0.881155C19.391 0.651911 20.2513 0.442368 21.1237 0.308046C21.7914 0.205961 22.4607 0.103876 23.137 0.0752205C23.2935 0.0680567 23.4708 0.0931302 23.6222 0H24.985L24.9798 0Z" fill="#1F2E55"/>
<path d="M0 24.8406C0.0757107 25.1558 0.0671072 25.471 0 25.7862V24.8406Z" fill="#263E67"/>
<path d="M0 26.2161C0.0688279 26.4453 0.0705486 26.6746 0 26.9038V26.2161Z" fill="#263E67"/>
<path d="M24.9798 44.9155C24.8559 44.9101 24.732 44.8976 24.6098 44.903C24.0506 44.9245 23.4982 44.8439 22.9442 44.7866C22.4865 44.7382 22.0339 44.6594 21.5814 44.5716C20.7107 44.4033 19.859 44.1579 19.021 43.8606C18.109 43.5383 17.2349 43.1246 16.3797 42.6679C15.4591 42.1771 14.6177 41.5521 13.7952 40.9002C13.4201 40.6029 13.0656 40.2841 12.7232 39.9492C12.3808 39.6143 12.0401 39.2793 11.7183 38.9212C11.1161 38.2513 10.5896 37.5224 10.063 36.7881C9.81353 36.4407 9.57435 36.0807 9.36787 35.7117C8.87575 34.8288 8.44214 33.9118 8.08595 32.9537C7.76762 32.0958 7.48199 31.229 7.28583 30.3335C7.15333 29.7281 7.04837 29.1174 6.9675 28.5013C6.89695 27.9569 6.83845 27.4088 6.8264 26.8644C6.81608 26.3916 6.82812 25.9134 6.82984 25.437C6.82984 24.7313 6.89007 24.0329 6.98299 23.338C7.10516 22.4299 7.28239 21.5291 7.54393 20.6497C7.7659 19.9011 8.0154 19.1614 8.30964 18.4397C8.51957 17.9239 8.80176 17.4475 9.01857 16.9353C9.1459 16.6344 9.26635 16.312 9.46595 16.0666C9.8445 15.601 10.1129 15.0601 10.4812 14.5891C10.8855 14.0715 11.2968 13.5611 11.7287 13.0668C12.2156 12.508 12.7714 12.0316 13.2928 11.5158C13.4511 11.36 13.6335 11.2203 13.7918 11.0734C13.9552 10.9212 14.1841 10.7923 14.3751 10.649C15.1563 10.0669 15.9771 9.55649 16.8305 9.0998C17.3674 8.81324 17.9335 8.59116 18.4841 8.33326C18.873 8.15058 19.2877 8.04492 19.6852 7.89448C20.0224 7.76732 20.3975 7.6921 20.7572 7.60255C21.0187 7.53807 21.2854 7.46106 21.5435 7.4145C21.7896 7.36972 22.0511 7.34286 22.3006 7.29987C22.7515 7.22107 23.2092 7.20495 23.6617 7.14227C23.9714 7.09929 24.2915 7.14406 24.6046 7.10287C24.7268 7.08675 24.8507 7.09391 24.9746 7.09033C25.3101 7.10466 25.6457 7.10287 25.9795 7.13869C26.4699 7.19063 26.9603 7.23003 27.449 7.2945C28.2336 7.40017 29.0045 7.56136 29.765 7.77627C30.2623 7.91776 30.7544 8.0879 31.2414 8.267C31.9486 8.52669 32.63 8.85443 33.2993 9.20546C34.1683 9.66037 34.9925 10.1941 35.772 10.7976C37.7955 12.3647 39.4525 14.2757 40.7052 16.5574C41.1388 17.3472 41.5174 18.1657 41.8357 19.0164C42.1661 19.9047 42.4379 20.8055 42.6513 21.7297C42.8027 22.3905 42.8991 23.0568 42.9817 23.7284C43.0625 24.3767 43.0866 25.0233 43.109 25.6752C43.1245 26.1569 43.1056 26.6369 43.0918 27.1169C43.078 27.6058 43.0023 28.093 42.9473 28.5819C42.8543 29.4129 42.6788 30.2242 42.4775 31.0284C42.3433 31.5675 42.154 32.0922 41.9751 32.6187C41.7462 33.2957 41.4606 33.9441 41.1491 34.5816C40.6587 35.5846 40.0857 36.5356 39.4216 37.4257C39.0654 37.9039 38.6868 38.3624 38.3031 38.8173C38.076 39.0841 37.8402 39.342 37.5925 39.5838C37.1984 39.9653 36.7941 40.3378 36.3759 40.6924C35.8494 41.1384 35.2953 41.5395 34.7292 41.9282C34.3558 42.1861 33.9618 42.4046 33.5764 42.641C33.1238 42.9168 32.6541 43.1586 32.1688 43.3627C31.2345 43.7603 30.2881 44.115 29.3056 44.3621C28.7171 44.5108 28.1235 44.6433 27.5247 44.7346C27.0291 44.8098 26.5267 44.8779 26.0225 44.8707C25.6715 44.8654 25.3256 44.9066 24.9763 44.9173L24.9798 44.9155ZM16.3573 34.5118C16.3556 34.5387 16.3625 34.553 16.3918 34.5422C16.4606 34.544 16.5294 34.5494 16.5982 34.5494C18.1056 34.5494 19.6112 34.544 21.1185 34.5548C21.3319 34.5548 21.3801 34.4975 21.3801 34.2808C21.3732 31.6606 21.3749 29.0386 21.3749 26.4184C21.3749 26.3468 21.368 26.2769 21.3628 26.2053C21.3852 26.2089 21.4076 26.2125 21.4317 26.2143C21.9513 27.1062 22.4744 27.9945 22.9923 28.8882C23.5877 29.918 24.1779 30.9514 24.7698 31.9812C24.9006 32.2086 24.9608 32.2122 25.083 32.0027C26.0965 30.2565 27.1048 28.5085 28.1217 26.7641C28.2301 26.5778 28.3127 26.3665 28.5055 26.182V26.4632C28.5055 29.0852 28.5072 31.7071 28.502 34.3273C28.502 34.5028 28.5382 34.553 28.7137 34.553C30.2623 34.5458 31.8109 34.5476 33.3578 34.5476C33.5448 34.5476 33.6383 34.4521 33.6383 34.2611C33.6383 29.1532 33.6383 24.0472 33.6383 18.9394C33.6383 18.4952 33.6349 18.051 33.64 17.6069C33.64 17.494 33.6211 17.4439 33.4955 17.4439C31.7885 17.4475 30.0816 17.4475 28.3764 17.4457C28.2973 17.4457 28.2439 17.4636 28.1975 17.5496C27.8378 18.2176 27.4679 18.8803 27.1031 19.5465C26.4269 20.7823 25.7489 22.018 25.0761 23.2556C24.9952 23.4024 24.9557 23.4096 24.8748 23.2556C24.6717 22.8634 24.4584 22.4783 24.2467 22.0915C23.4294 20.5978 22.6086 19.1059 21.7947 17.6087C21.7276 17.4869 21.6605 17.4439 21.5246 17.4457C19.8727 17.4511 18.2209 17.4529 16.5707 17.4457C16.3797 17.4457 16.3384 17.4994 16.3384 17.6911C16.3436 23.2216 16.3419 28.7503 16.3436 34.2808C16.3436 34.3596 16.3539 34.4366 16.3591 34.5154L16.3573 34.5118Z" fill="white"/>
<path d="M21.3601 26.2054C21.3636 26.2771 21.3722 26.3469 21.3722 26.4185C21.3722 29.0387 21.3705 31.6607 21.3773 34.2809C21.3773 34.4976 21.3292 34.5567 21.1158 34.5549C19.6085 34.5441 18.1029 34.5495 16.5955 34.5495C16.5267 34.5495 16.4579 34.5441 16.389 34.5424C16.377 34.5316 16.3667 34.5227 16.3546 34.5119C16.3495 34.4331 16.3391 34.3561 16.3391 34.2773C16.3391 28.7468 16.3391 23.2181 16.334 17.6876C16.334 17.496 16.3753 17.4422 16.5663 17.4422C18.2181 17.4512 19.87 17.4494 21.5202 17.4422C21.6544 17.4422 21.7232 17.4834 21.7903 17.6052C22.6042 19.1007 23.4233 20.5943 24.2423 22.088C24.454 22.4748 24.669 22.8599 24.8704 23.2521C24.9495 23.4061 24.9908 23.4008 25.0717 23.2521C25.7445 22.0146 26.4224 20.7788 27.0987 19.543C27.4635 18.8768 27.8334 18.2141 28.193 17.5461C28.2395 17.4601 28.2911 17.4422 28.372 17.4422C30.0789 17.4422 31.7858 17.444 33.491 17.4404C33.6167 17.4404 33.6373 17.4906 33.6356 17.6034C33.6304 18.0476 33.6339 18.4917 33.6339 18.9359C33.6339 24.0437 33.6339 29.1498 33.6339 34.2576C33.6339 34.4486 33.5404 34.5441 33.3534 34.5441C31.8048 34.5441 30.2561 34.5406 28.7092 34.5495C28.5337 34.5495 28.4976 34.4994 28.4976 34.3239C28.5027 31.7019 28.501 29.0799 28.501 26.4597V26.1785C28.3066 26.363 28.2257 26.5744 28.1173 26.7606C27.1004 28.505 26.0903 30.253 25.0786 31.9992C24.9564 32.2087 24.8962 32.2051 24.7654 31.9777C24.1718 30.9461 23.5833 29.9127 22.9879 28.8847C22.4717 27.991 21.9486 27.1009 21.4272 26.2108C21.4272 26.1768 21.4238 26.1356 21.3791 26.1391C21.3464 26.1427 21.3429 26.1714 21.3584 26.2L21.3601 26.2054Z" fill="#1F2E55"/>
<path d="M21.3605 26.2054C21.345 26.1768 21.3484 26.1463 21.3811 26.1445C21.4258 26.1409 21.4276 26.1803 21.4293 26.2162C21.4069 26.2126 21.3845 26.209 21.3605 26.2072V26.2054Z" fill="#263E67"/>
<path d="M16.3577 34.5117C16.3697 34.5225 16.38 34.5314 16.3921 34.5422C16.3628 34.5547 16.3559 34.5386 16.3577 34.5117Z" fill="#263E67"/>
</g>
<defs>
<clipPath id="clip0_1194_1576">
<rect width="50" height="67" fill="white"/>
</clipPath>
</defs>
</svg>
